<svg width="357" height="808" viewBox="0 0 357 808" fill="none" xmlns="http://www.w3.org/2000/svg">
<g clip-path="url(#clip0_1_1121)">
<path d="M203.8 145.7C203.8 145.7 215.22 125.1 240.13 124.7C265.04 124.3 281.13 137.32 286.89 148.03C295.31 163.68 319.09 251.87 307.82 261.12C296.55 270.37 254.22 275.7 227.51 252.35C200.8 229 203.8 145.7 203.8 145.7Z" fill="#3F434C"/>
<path d="M263.98 218.3C263.566 218.298 263.169 218.135 262.872 217.846C262.576 217.557 262.403 217.164 262.39 216.75C262.381 216.54 262.413 216.33 262.486 216.133C262.559 215.936 262.67 215.755 262.814 215.602C262.957 215.448 263.13 215.324 263.321 215.238C263.513 215.152 263.72 215.105 263.93 215.1C273.958 214.826 283.868 212.858 293.24 209.28C296.825 207.945 300.249 206.214 303.45 204.12C303.795 203.874 304.224 203.774 304.642 203.844C305.06 203.913 305.433 204.146 305.68 204.49C305.804 204.66 305.893 204.852 305.942 205.057C305.991 205.261 305.998 205.473 305.965 205.68C305.931 205.887 305.857 206.086 305.747 206.265C305.636 206.443 305.491 206.598 305.32 206.72C304.72 207.15 290.32 217.37 264.04 218.29L263.98 218.3Z" fill="white"/>
<path d="M288.83 214.13C288.453 214.128 288.09 213.994 287.802 213.751C287.515 213.508 287.323 213.171 287.26 212.8C287.26 212.64 284.42 196.18 282.01 182.8C279.34 168.03 275.71 152.68 263.5 141.68C250.98 130.41 223.39 130.1 223.11 130.1C222.686 130.095 222.282 129.923 221.984 129.621C221.687 129.32 221.519 128.914 221.52 128.49C221.521 128.28 221.564 128.072 221.645 127.879C221.727 127.685 221.846 127.509 221.995 127.362C222.145 127.214 222.322 127.097 222.517 127.018C222.711 126.939 222.92 126.899 223.13 126.9C228.519 127.021 233.891 127.553 239.199 128.49C251.069 130.56 259.97 134.2 265.64 139.3C278.64 150.98 282.39 166.91 285.16 182.23C287.57 195.6 290.38 212.07 290.41 212.23C290.479 212.649 290.381 213.078 290.135 213.425C289.89 213.771 289.518 214.007 289.1 214.08L288.83 214.13Z" fill="white"/>
<path d="M180.68 735.34C180.493 733.731 180.776 732.103 181.497 730.652C182.218 729.202 183.344 727.992 184.74 727.17C185.651 726.635 186.684 726.343 187.74 726.32C192.16 726.32 197.48 732.32 206.65 732.66C215.82 733 219.47 732.27 221.38 740.36C224.48 753.5 218.18 767.53 220.02 774.11C223.19 785.43 224.77 797.66 224.43 803.44C224.09 809.22 131.68 807.52 131.68 807.52C131.68 807.52 128.28 795.63 138.82 790.87C149.36 786.11 176.87 778.64 180.61 772.52C183.63 767.59 181.6 744.36 180.68 735.34Z" fill="#101920"/>
<path d="M333.36 766.85C331.36 761.41 324.25 749.2 318.13 739.16C308.62 723.53 315.46 725.45 309.47 711.3C306.23 703.64 295.93 704.54 287.38 707.88C278.83 711.22 271.56 707.83 267.5 709.58C266.528 710.025 265.687 710.714 265.06 711.58C264.108 712.89 263.557 714.448 263.473 716.065C263.39 717.682 263.778 719.289 264.59 720.69C269.03 728.6 281.95 746.89 281.15 752.59C280.723 755.757 279.989 758.875 278.96 761.9C277.623 765.68 275.495 769.13 272.716 772.021C269.938 774.911 266.574 777.175 262.85 778.66C259.25 780.12 256.04 781.47 253.7 782.66C251.529 783.683 249.7 785.309 248.43 787.346C247.16 789.382 246.504 791.741 246.54 794.14C246.52 794.844 246.643 795.544 246.902 796.199C247.161 796.854 247.551 797.449 248.048 797.948C248.545 798.446 249.139 798.839 249.793 799.1C250.446 799.362 251.146 799.488 251.85 799.47C257.17 799.33 266.56 799.04 277.28 798.59C281.682 798.41 285.971 797.149 289.77 794.92C302.95 787.17 334.04 768.7 333.36 766.85Z" fill="#101920"/>
<path d="M142.03 108.04C124.96 104.56 114.55 115.15 110.38 125.19L68.04 209.59C68.04 209.59 56.86 199.9 40.09 168.38C36.16 161.01 -6.10352e-05 166.51 -6.10352e-05 174.21C1.50994 241.21 24.2599 343.16 73.9999 308.02C114.38 279.47 150.59 168.27 157.7 148.08C164.31 129.11 156.91 111.06 142.03 108.04Z" fill="#1C98F8"/>
<path d="M58.6604 158.53C58.6604 158.53 50.4602 144.53 50.4602 142.03C50.4602 139.53 47.4605 134.7 44.6705 139.23C41.8805 143.76 49.3003 152.74 51.0403 154.23C52.7803 155.72 58.6604 158.53 58.6604 158.53Z" fill="#FCBBA8"/>
<path d="M310.709 707.59C310.709 707.59 245.5 589.98 214.03 543.26L147.31 573.32C194.25 659.18 241.15 738.92 241.15 738.92L310.709 707.59Z" fill="#3F434C"/>
<path d="M189.47 405.39C189.47 405.39 173.66 322.66 173.71 261.74C140.12 265.16 106.97 274.32 101.9 284.35C101.9 284.35 95.4002 317.24 91.3702 383.5C88.7702 426.24 131.59 566.88 157.37 591.71L206.83 558.78C206.55 557.11 182.55 471.59 189.47 405.39Z" fill="#3F434C"/>
<path d="M255.229 765.59L265.49 585.25C265.49 585.25 279.599 366.7 275.979 347.69C270.189 317.24 263.77 297.38 247.65 272.75C239.65 260.59 206.489 258.45 173.709 261.75C173.659 322.67 172.439 409.24 172.439 409.24C172.439 409.24 183.76 541.24 184.26 585.41C184.77 630.86 176.16 767.04 176.16 767.04L255.229 765.59Z" fill="#3F434C"/>
<path d="M153.04 8.18004C153.04 8.18004 145.67 14.1801 134.82 22.0701C123.97 29.9601 122.38 32.61 121.73 46.3C121.22 56.97 121.94 77.3801 114.93 92.2201C88.1901 148.89 104.21 202.66 148.29 206.81C186.09 210.38 179.94 56.62 180.23 48.55C181.15 23.03 174.71 5.16004 153.04 8.18004Z" fill="#8A4F45"/>
<path d="M130.16 102.18C141.16 93.7299 158.01 87.7199 171.87 88.5399C190.66 89.6699 211.44 98.7899 223 111.43C241.38 131.52 258.95 161.9 272.24 234.64C280.92 282.18 301.18 364.29 292.44 403.52C284.13 440.86 109.64 457.14 73.7095 415.81C56.4395 395.95 72.7095 360.67 75.4395 318.28C80.7995 235.51 94.1996 132.12 123.06 108.99C123.75 108.44 129.45 102.74 130.16 102.18Z" fill="#1C98F8"/>
<path d="M169.08 57.78C169.08 57.78 177.84 89.28 176.23 91.78C174.74 94.08 153.63 98.78 153.67 94.78C153.75 86.85 152.37 66.9901 152.37 66.9901L169.08 57.78Z" fill="#FCBBA8"/>
<path d="M148.1 24.5899C152.39 24.1051 156.717 25.0959 160.369 27.3989C164.021 29.7019 166.779 33.1798 168.19 37.26C172.51 49.75 173.53 56.6899 169.52 64.7299C165.32 73.1199 154.52 82.2099 146.58 82.4899C142.965 82.5552 139.429 81.4252 136.522 79.2753C133.614 77.1254 131.497 74.0758 130.5 70.5999C128.86 64.9299 128.95 61.2 128.38 58.76C126.95 52.66 120.38 31.3599 131.83 27.9499C137.15 26.3753 142.592 25.2513 148.1 24.5899Z" fill="#FCBBA8"/>
<path d="M145.49 65.3201C145.49 65.3201 139.07 67.2101 134.82 68.8101C134.82 68.8101 136.07 72.9701 140.24 71.6301C144.19 70.3601 145.49 65.3201 145.49 65.3201Z" fill="white"/>
<path d="M144.16 54.7501C143.995 54.7503 143.836 54.687 143.717 54.5734C143.598 54.4598 143.527 54.3046 143.52 54.1401C143.52 54.0701 143.519 52.2701 145.959 51.5401C148.119 50.9101 151.96 51.6202 152.09 51.6502C152.256 51.6841 152.402 51.7813 152.497 51.9214C152.592 52.0615 152.629 52.2333 152.6 52.4002C152.566 52.5661 152.468 52.7122 152.328 52.8075C152.188 52.9028 152.016 52.9395 151.85 52.91C151.85 52.91 148.18 52.2202 146.32 52.7702C144.83 53.2102 144.8 54.0701 144.8 54.1101C144.795 54.2766 144.727 54.435 144.61 54.5537C144.493 54.6724 144.336 54.7426 144.17 54.7501H144.16Z" fill="#3F434C"/>
<path d="M129.96 57.5202C129.843 57.5246 129.728 57.4931 129.63 57.4301C129.487 57.3429 129.383 57.2029 129.342 57.0402C129.301 56.8774 129.325 56.705 129.41 56.5601C130.64 54.4901 133.04 54.8701 134.14 55.3601C134.294 55.432 134.413 55.5612 134.473 55.72C134.533 55.8788 134.528 56.0547 134.46 56.2101C134.39 56.3631 134.263 56.4825 134.106 56.5424C133.948 56.6023 133.774 56.5978 133.62 56.53C133.53 56.53 131.47 55.6101 130.51 57.2101C130.453 57.3049 130.372 57.3833 130.276 57.4376C130.179 57.492 130.071 57.5204 129.96 57.5202Z" fill="#3F434C"/>
<path d="M138.9 55.6699C138.873 55.5828 138.818 55.5068 138.744 55.4528C138.67 55.3987 138.581 55.3696 138.49 55.3696C138.399 55.3696 138.31 55.3987 138.236 55.4528C138.162 55.5068 138.108 55.5828 138.08 55.6699C137.453 57.4887 136.509 59.1816 135.29 60.6699C132.97 63.4499 133.69 65.6699 137.29 64.4099C140.89 63.1499 141.12 62.6699 140.58 60.4099C140.12 58.7962 139.559 57.2131 138.9 55.6699Z" fill="#D68472"/>
<path d="M142.15 47.59C142.006 47.59 141.865 47.5417 141.751 47.453C141.637 47.3643 141.556 47.2401 141.52 47.1C141.484 46.933 141.516 46.7586 141.608 46.6145C141.699 46.4704 141.844 46.3682 142.01 46.33C144.901 45.6859 147.881 45.5405 150.82 45.9C150.987 45.9293 151.136 46.0236 151.233 46.1624C151.331 46.3011 151.369 46.4729 151.34 46.64C151.311 46.807 151.217 46.9556 151.078 47.0531C150.939 47.1506 150.767 47.189 150.6 47.1599C147.826 46.844 145.019 46.9859 142.29 47.58L142.15 47.59Z" fill="#3F434C"/>
<path d="M127.77 54.33C127.638 54.3336 127.509 54.2951 127.4 54.22C127.261 54.1231 127.166 53.975 127.136 53.8081C127.106 53.6413 127.143 53.4693 127.24 53.33C128.317 51.8647 129.581 50.5468 131 49.4099C131.131 49.3026 131.3 49.2519 131.469 49.2688C131.638 49.2857 131.793 49.3688 131.9 49.5C132.009 49.6301 132.061 49.7979 132.046 49.9666C132.031 50.1353 131.95 50.2911 131.82 50.4C130.484 51.4552 129.296 52.6863 128.29 54.0599C128.232 54.1443 128.155 54.2132 128.064 54.2603C127.973 54.3074 127.872 54.3313 127.77 54.33Z" fill="#3F434C"/>
<path d="M156.84 79.2101C156.738 79.2114 156.637 79.1875 156.546 79.1404C156.455 79.0933 156.378 79.0244 156.32 78.94C156.221 78.8032 156.181 78.633 156.207 78.4663C156.233 78.2996 156.324 78.15 156.46 78.05C158.76 76.4215 160.927 74.6125 162.94 72.6401C163.05 72.5119 163.207 72.4325 163.376 72.4194C163.544 72.4063 163.711 72.4604 163.84 72.57C163.968 72.6804 164.048 72.8369 164.061 73.0056C164.074 73.1742 164.02 73.3413 163.91 73.4701C161.83 75.5187 159.589 77.398 157.21 79.0901C157.102 79.1681 156.973 79.2101 156.84 79.2101Z" fill="#D68472"/>
<path d="M147.4 51.7001C147.914 51.6908 148.415 51.8529 148.827 52.1608C149.238 52.4687 149.534 52.9048 149.67 53.4002C149.784 53.7893 149.806 54.1993 149.736 54.5985C149.666 54.9978 149.504 55.3755 149.265 55.7024C149.025 56.0293 148.713 56.2965 148.353 56.4834C147.993 56.6703 147.595 56.7717 147.19 56.78C145.09 56.78 144.02 54.0301 145.03 52.8801C145.317 52.5252 145.678 52.2362 146.087 52.0326C146.496 51.829 146.944 51.7156 147.4 51.7001Z" fill="#3F434C"/>
<path d="M131.79 55.59C132.52 55.48 133.24 56.13 133.52 57.11C133.87 58.36 133.57 60.5199 132.1 60.6599C130.63 60.7999 129.64 58.16 130.24 56.95C130.67 56.19 131.14 55.72 131.79 55.59Z" fill="#3F434C"/>
<path d="M265.73 203.59C255.95 163.04 244.48 139.38 232.38 122.86C178 145.13 124.12 146.74 101.89 146.27C95.4401 165.33 90.2899 189.41 86.2199 215.44C146.6 239.59 233.55 214.53 265.73 203.59Z" fill="#70C0FF"/>
<path d="M195.64 112.51C195.64 112.51 185.32 160.36 192.64 180.81C199.96 201.26 231.42 236.57 278.64 234.64V248.72C278.64 248.72 229.99 254.13 195.31 218.59C160.63 183.05 182.31 104.37 182.31 104.37L195.64 112.51Z" fill="#3F434C"/>
<path d="M196.7 294.59C215.23 260.73 227.26 200.15 227.26 200.15C227.26 200.15 190.05 269.41 162.84 280.15C135.63 290.89 100.91 264.37 100.91 264.37L79.04 273.49C77.97 284.58 77.0399 295.62 76.2599 306.41C76.2599 306.41 104.68 338.91 129.85 340.35C155.02 341.79 178.18 328.41 196.7 294.59Z" fill="#3F434C"/>
<path d="M149.76 42.5901C155.369 48.4991 159.986 55.2766 163.43 62.66C168.53 74.14 171.87 88.5601 177.12 107.38C181.25 122.18 208.12 128.52 193.63 81.4601C190.16 70.1501 176.43 47.4601 176.43 47.4601L149.76 42.5901Z" fill="#8A4F45"/>
<path d="M121.79 46.94C121.79 46.94 149.73 43.13 159.65 46.94C169.57 50.75 178.8 56.7601 180.23 54.1201C181.66 51.4801 182.88 39.1201 182.81 37.8401C182.74 36.5601 167.59 31.6901 154.69 30.9001C141.79 30.1101 125.15 30.1001 122.9 31.6201C120.65 33.1401 121.31 42.59 121.79 46.94Z" fill="#DA9B1D"/>
<path d="M123.77 32.7801C126.254 25.4113 131.021 19.0257 137.38 14.5501C145.49 8.76008 147.24 2.83014 152.38 1.23014C157.52 -0.369864 168.93 -1.36992 172.05 4.42008C175.17 10.2101 173.61 12.6501 175.53 16.3601C177.45 20.0701 183.26 29.8801 182.1 38.5701C180.94 47.2601 120.44 36.4001 123.77 32.7801Z" fill="#DA9B1D"/>
<path d="M10.8104 174.24C9.29243 171.789 8.31767 169.04 7.95196 166.18C7.58625 163.32 7.83798 160.415 8.69024 157.66C11.5802 148.2 23.6904 134.12 28.5604 134.51C33.4304 134.9 36.8504 151.87 36.8504 152.45C36.8504 153.03 27.4004 178.47 10.8104 174.24Z" fill="#FCBBA8"/>
<path d="M221.01 119.33C203.94 115.85 193.54 126.44 189.36 136.47L130.14 247.95C130.14 247.95 97.83 208.87 81.06 177.35C79.1772 173.716 76.2736 170.712 72.7062 168.706C69.1388 166.7 65.063 165.781 60.9799 166.06C50.4699 166.89 40.09 173.45 40.09 181.15C41.59 248.15 107.36 356.31 157.09 321.15C197.48 292.6 233.91 185.36 241.02 165.15C247.67 146.19 235.89 122.35 221.01 119.33Z" fill="#1C98F8"/>
<path d="M39.9903 121.26L21.5804 120.87C18.5804 120.81 16.5802 123.41 16.9502 126.95L21.6104 173.65C22.0404 177.87 25.6104 181.65 29.1504 181.75L47.5604 182.14C50.5604 182.21 52.5602 179.6 52.1902 176.07L47.5303 129.37C47.1103 125.14 43.5703 121.34 39.9903 121.26Z" fill="#3F434C"/>
<path d="M29.0199 124.86L22.33 124.72C21.58 124.72 21.11 125.42 21.33 126.32C21.3986 126.742 21.6007 127.131 21.9066 127.43C22.2126 127.729 22.6063 127.921 23.0299 127.98L29.7199 128.13C30.4799 128.13 30.9399 127.42 30.7199 126.52C30.6512 126.098 30.4492 125.709 30.1432 125.41C29.8372 125.111 29.4435 124.919 29.0199 124.86Z" fill="#FCF8EB"/>
<path d="M60.8801 159.12C60.8801 159.12 50.54 147.77 47.02 147.29C43.5 146.81 28.5501 141.72 27.5901 143.48C26.6301 145.24 33.77 148.98 33.77 148.98C33.77 148.98 27.5299 151.83 26.9599 153.31C26.3899 154.79 28.1601 156.24 28.1601 156.24C28.1601 156.24 26.4099 158.48 26.9599 159.24C27.5099 160 37.73 162.44 37.73 162.92C37.73 163.4 30.5601 162.76 30.0801 165.63C29.6001 168.5 42.1799 167.22 46.6999 170.43C51.2199 173.64 51.89 185.68 59.49 184.26C71.15 182.13 67.7301 167.99 60.8801 159.12Z" fill="#FCBBA8"/>
<path d="M182.41 57.7799C182.41 57.7799 201.59 82.1099 219.25 93.4299C236.91 104.75 264.1 122.56 270.18 165.97C276.26 209.38 237.58 206.6 232.65 188.44C228.692 174.751 222.155 161.945 213.39 150.71C200.22 134.06 180.82 120.46 177.12 107.36C170.31 83.25 171.14 52.3399 182.41 57.7799Z" fill="#8A4F45"/>
<path d="M77.9004 287.44C77.6376 287.439 77.3788 287.374 77.147 287.25C76.9152 287.127 76.7173 286.948 76.5704 286.73C44.0804 238.59 39.1504 191.3 39.1104 190.83C39.0685 190.408 39.1953 189.987 39.4634 189.659C39.7315 189.331 40.1188 189.123 40.5403 189.08C40.7498 189.059 40.9614 189.08 41.1629 189.141C41.3643 189.203 41.5516 189.303 41.7142 189.437C41.8767 189.571 42.0113 189.735 42.1102 189.921C42.209 190.107 42.2703 190.31 42.2903 190.52C42.2903 190.98 47.2003 237.52 79.2303 284.94C79.4674 285.291 79.5553 285.723 79.4747 286.139C79.394 286.555 79.1515 286.922 78.8003 287.16C78.5355 287.342 78.2218 287.44 77.9004 287.44Z" fill="#3F434C"/>
<path d="M276.58 403.85C257.58 411.18 178.66 431.63 124.64 423.53C91.1104 418.53 74.0404 403.53 65.9004 392.86C66.1804 401.86 68.3002 409.59 73.7102 415.86C109.64 457.19 284.13 440.86 292.44 403.57C293.021 400.928 293.465 398.258 293.77 395.57C288.264 398.772 282.516 401.54 276.58 403.85Z" fill="#70C0FF"/>
</g>
<defs>
<clipPath id="clip0_1_1121">
<rect width="357" height="808" fill="white"/>
</clipPath>
</defs>
</svg>
