<svg width="204" height="56" viewBox="0 0 204 56" fill="none" xmlns="http://www.w3.org/2000/svg">
<path d="M17.6909 54.1586C13.5027 52.563 9.75797 49.9719 6.77458 46.6054C3.79118 43.2388 1.65716 39.1961 0.55365 34.8203C0.785496 35.6387 1.09463 36.7687 1.37478 37.5481C1.86426 38.9395 2.47189 40.2857 3.19091 41.5716C3.87433 42.8403 4.66627 44.0464 5.55767 45.1762C6.41998 46.3056 7.36965 47.3644 8.39779 48.3425C9.41663 49.3154 10.5082 50.2079 11.6629 51.0118C12.8134 51.8201 14.0246 52.5367 15.2855 53.1551C15.9907 53.4669 16.9181 53.8955 17.633 54.1781C17.633 54.1781 17.633 54.1781 17.6909 54.1781" fill="#0B4765"/>
<path d="M15.8071 50.8366C12.1374 48.9261 8.94725 46.198 6.47846 42.8592C4.00967 39.5205 2.32707 35.6586 1.55825 31.5665C0.949632 28.299 0.949632 24.9458 1.55825 21.6782C1.15445 21.8003 0.78191 22.0098 0.466636 22.292C-0.158783 25.6434 -0.155497 29.0834 0.476305 32.4336C1.26414 36.6289 2.98879 40.5883 5.51951 44.0114C8.05023 47.4346 11.3206 50.2317 15.0826 52.1908C15.2661 51.8498 15.5173 51.4017 15.8168 50.8366" fill="#0B4765"/>
<path d="M37.7069 1.91126C42.0031 3.60525 45.803 6.37058 48.7512 9.94858C51.6993 13.5266 53.6993 17.8003 54.564 22.3699C55.2658 26.0804 55.173 29.8993 54.2916 33.5706C53.4103 37.2419 51.7608 40.6807 49.4538 43.6566C49.598 44.0314 49.6413 44.4382 49.5793 44.8354C52.1556 41.504 53.9313 37.6158 54.7669 33.476C55.0634 32.0256 55.2379 30.5525 55.2885 29.0725C55.3516 26.9609 55.1962 24.8484 54.8248 22.7693C54.5543 21.2699 54.1567 19.7967 53.6366 18.3658C52.6449 15.6178 51.2371 13.0413 49.4634 10.7279C48.5993 9.60007 47.6463 8.54449 46.6136 7.57148C45.5948 6.59851 44.5032 5.70606 43.3485 4.9021C42.198 4.09386 40.9868 3.37728 39.7259 2.75883C39.1173 2.48605 38.3058 2.09634 37.6876 1.85278V1.90151" fill="#0B4765"/>
<path d="M24.3854 51.3918C19.2032 50.494 14.4157 48.024 10.6616 44.3112C6.90754 40.5983 4.36538 35.8193 3.37434 30.6117C3.25842 29.9492 3.16183 29.277 3.08455 28.6145C2.52845 28.8264 1.98353 29.067 1.45197 29.3354C1.51959 30.0369 1.62583 30.7286 1.76107 31.43C2.79998 36.9025 5.46831 41.9256 9.41031 45.8297C13.3523 49.7338 18.3807 52.3333 23.8251 53.2818C23.9893 52.7362 24.1728 52.1029 24.366 51.3918" fill="#FFB606"/>
<path d="M51.067 14.7905C52.2243 17.0337 53.0479 19.4366 53.511 21.9218C53.6559 22.7011 53.7622 23.4708 53.8298 24.2404C54.1729 24.3606 54.4979 24.5278 54.7958 24.7373C54.7186 23.9287 54.6026 23.1201 54.4481 22.3017C53.9681 19.6858 53.1019 17.1571 51.8784 14.8002C51.6071 14.7492 51.3287 14.7492 51.0573 14.8002" fill="#FFB606"/>
<path d="M31.8239 46.4136C26.4018 47.0472 20.9425 45.5928 16.5381 42.3414C12.1338 39.09 9.1091 34.2814 8.0693 28.8776C7.49405 25.8274 7.59685 22.6864 8.37027 19.681C9.14369 16.6756 10.5685 13.8807 12.542 11.4976C11.4095 10.8856 10.2265 10.3738 9.00635 9.96802C6.67532 12.7806 4.99227 16.0799 4.0785 19.6278C3.16473 23.1757 3.04302 26.884 3.7222 30.4851C4.93965 36.8771 8.50889 42.5684 13.7138 46.4171C18.9187 50.2658 25.3742 51.9872 31.7852 51.236C31.8528 49.8818 31.8625 48.2548 31.7852 46.4233" fill="#FF3900"/>
<path d="M27.2062 3.90852C32.4938 3.52624 37.7369 5.11298 41.9422 8.3682C46.1475 11.6234 49.0228 16.321 50.0236 21.5711C50.5503 24.3457 50.5141 27.1991 49.9174 29.9591C51.0521 30.4754 52.1412 31.0882 53.1729 31.7907C53.868 28.5261 53.9107 25.1545 53.2985 21.8731C52.1134 15.6698 48.7134 10.1203 43.7424 6.27611C38.7715 2.43188 32.575 0.559991 26.3271 1.01509C26.6994 1.96322 26.9935 2.94077 27.2062 3.93775" fill="#FF3900"/>
<path d="M17.4783 40.7339C13.4394 37.7261 10.6785 33.2886 9.75013 28.3126C9.03824 24.5507 9.44142 20.6607 10.9093 17.1286L9.76944 16.8752C8.21435 20.6061 7.78426 24.7165 8.53293 28.6925C9.51709 33.9527 12.4407 38.6416 16.7151 41.8153L17.4783 40.7339" fill="#0B4765"/>
<path d="M42.6722 10.6111C44.8064 12.6159 46.4764 15.0703 47.5634 17.7998C48.6503 20.5292 49.1275 23.4667 48.9611 26.4032L49.9271 26.676C50.0315 24.9644 49.9244 23.2463 49.6083 21.5614C48.7859 17.1405 46.5862 13.0996 43.3291 10.0266L42.6722 10.6501" fill="#0B4765"/>
<path d="M41.3005 50.1741C37.3144 52.8291 32.6373 54.2323 27.8604 54.2063C23.0836 54.1802 18.4217 52.7262 14.4643 50.028C11.772 48.1736 9.49474 45.7709 7.77942 42.9747L8.43631 42.7993C10.1055 45.5037 12.3167 47.8265 14.928 49.6189C18.7691 52.254 23.3017 53.6753 27.9472 53.7013C32.5928 53.7273 37.1407 52.3569 41.0106 49.765L41.3487 50.1547" fill="#FFB606"/>
<path d="M23.6608 7.23058C26.786 6.60755 30.0031 6.62012 33.1233 7.26754C36.2436 7.91496 39.2043 9.18419 41.8317 11.0008C45.7946 13.7033 48.8314 17.5758 50.5259 22.0874L49.9173 22.5356C48.2759 18.1765 45.341 14.4342 41.513 11.8192C38.967 10.0659 36.0998 8.84236 33.0793 8.22008C30.0588 7.5978 26.9455 7.58928 23.9216 8.19505C23.854 7.8833 23.7961 7.59105 23.7285 7.29879" fill="#FFB606"/>
<path d="M35.0116 52.337C31.701 53.3994 28.1942 53.6883 24.7565 53.1819C21.3189 52.6756 18.0405 51.3872 15.1695 49.4144C11.5723 46.943 8.77422 43.4605 7.1225 39.3994C8.01124 39.2825 8.99658 39.1071 10.0206 38.8831C11.4558 42.4144 13.8878 45.4428 17.0146 47.5926C19.5106 49.3049 22.3599 50.4227 25.3471 50.8615C28.3344 51.3003 31.3814 51.0487 34.2581 50.1256L34.9729 52.3273" fill="#1C97F8"/>
<path d="M14.5125 12.8323C18.3454 9.91485 22.9877 8.28034 27.7882 8.15804C32.5888 8.03574 37.3069 9.43178 41.281 12.1504C43.7473 13.8394 45.8502 16.0131 47.4636 18.5413C46.7681 19.2427 45.9759 19.9831 45.1161 20.7625C43.7129 18.5671 41.8864 16.6787 39.7451 15.2094C36.2894 12.8477 32.1878 11.6351 28.0148 11.7417C23.8417 11.8483 19.8062 13.2686 16.4735 15.8037C15.7683 14.7515 15.1114 13.7579 14.5415 12.8323" fill="#1C97F8"/>
<path d="M28.1431 55.6688C22.7175 55.7705 17.3956 54.1631 12.9186 51.0705C9.80615 48.939 7.20196 46.1369 5.29412 42.8668C3.38629 39.5966 2.22241 35.9399 1.8866 32.1609C2.59148 32.3921 3.31125 32.5744 4.04084 32.7064C4.34823 36.2086 5.42276 39.5983 7.18687 42.6308C8.95099 45.6634 11.3607 48.2631 14.242 50.2424C18.3835 53.1035 23.3076 54.5885 28.3267 54.49C28.2887 54.8992 28.2274 55.3058 28.1431 55.7078" fill="#16AFB2"/>
<path d="M27.2351 3.67463C30.6738 3.54753 34.1035 4.10789 37.3266 5.32345C40.5496 6.539 43.5024 8.38572 46.0146 10.7572C45.7151 11.4002 45.3287 12.1211 44.865 12.9102C42.5388 10.7147 39.8047 9.005 36.8204 7.87973C33.8361 6.75447 30.6605 6.23585 27.4766 6.35374C27.3896 5.37952 27.3123 4.4053 27.2254 3.67463" fill="#16AFB2"/>
<path d="M40.1895 52.8922C35.8566 55.1781 30.9903 56.2368 26.1082 55.9554C21.2262 55.6741 16.5111 54.0633 12.4646 51.2945C9.44253 49.2148 6.88568 46.5201 4.95862 43.3838H5.36433C7.26285 46.4722 9.77992 49.1268 12.7544 51.1776C16.7455 53.9032 21.3952 55.4859 26.2078 55.757C31.0205 56.0281 35.8159 54.9774 40.0832 52.7168C40.1226 52.7615 40.1645 52.8038 40.2088 52.8435" fill="#FF3900"/>
<path d="M4.97797 12.9493C7.34199 9.54263 10.4282 6.70926 14.0129 4.65475C17.5975 2.60024 21.5906 1.37608 25.7025 1.07109C29.8145 0.766088 33.9423 1.38789 37.7864 2.89139C41.6305 4.39489 45.0946 6.74241 47.9274 9.76364C47.8745 10.1736 47.7639 10.5738 47.5989 10.9522C46.2879 9.54783 44.8305 8.29029 43.2518 7.20144C37.3578 3.16837 30.1319 1.62373 23.1222 2.89843C16.1126 4.17313 9.87677 8.16578 5.75077 14.021C5.46105 13.6746 5.20244 13.3029 4.97797 12.9104" fill="#0B4765"/>
<path d="M7.04519 47.0471C6.03453 45.9569 5.11981 44.7802 4.31135 43.5302C2.69964 41.0816 1.4804 38.3922 0.698433 35.561L0.28302 33.8367C0.28302 33.8367 0.28302 33.8367 0.28302 33.8951C0.33623 34.0591 0.425395 34.209 0.543865 34.3335C1.74231 40.0707 4.76025 45.2584 9.14147 49.1124C8.5039 48.4987 7.62482 47.7096 7.03555 47.0471" fill="#16AFB2"/>
<path d="M20.6565 1.18078C24.5042 0.171314 28.5215 0.00373359 32.4387 0.689304C36.3559 1.37487 40.0823 2.89772 43.3677 5.15559C46.3684 7.21906 48.9274 9.86941 50.893 12.9493L50.951 13.0858C50.9901 13.2622 50.9901 13.4451 50.951 13.6216C50.0595 12.2323 49.0442 10.9279 47.9177 9.72468C44.5156 6.1 40.21 3.46417 35.4514 2.09305C30.6929 0.721925 25.6564 0.665935 20.869 1.93092C20.8014 1.69711 20.7531 1.49251 20.7048 1.33663V1.21001" fill="#16AFB2"/>
<path d="M16.3673 2.33036C16.9952 2.08681 17.8163 1.73607 18.4443 1.52174C23.8261 -0.344993 29.6468 -0.498021 35.1178 1.08336C36.5277 1.4806 37.9012 1.99882 39.2234 2.63237C40.5954 3.27523 41.9108 4.0346 43.1551 4.90229C44.8751 6.1081 46.4649 7.4926 47.8983 9.033C48.9051 10.1136 49.8166 11.2806 50.6225 12.5207C48.684 9.58432 46.2008 7.05363 43.3097 5.06792C39.3983 2.38436 34.8755 0.746019 30.1649 0.306406C25.4544 -0.133207 20.7102 0.640283 16.377 2.55441C16.377 2.48622 16.319 2.37907 16.377 2.33036" fill="#0B4765"/>
<path d="M71.4404 8.81846C71.4837 9.18718 71.453 9.5609 71.3501 9.91741C71.2472 10.2739 71.0742 10.6059 70.8415 10.8936C70.183 11.3407 69.3899 11.5406 68.6003 11.4586C67.8134 11.5442 67.0222 11.3439 66.3688 10.8936C65.9897 10.285 65.7887 9.58093 65.7887 8.86229C65.7887 8.14365 65.9897 7.4396 66.3688 6.83105C67.0222 6.38074 67.8134 6.18038 68.6003 6.26601C69.3785 6.17321 70.1632 6.37451 70.8028 6.83105C71.0395 7.09989 71.2184 7.4153 71.3281 7.75737C71.4379 8.09944 71.4761 8.46075 71.4404 8.81846ZM71.0636 32.1997C71.0705 32.3226 71.0327 32.4438 70.9574 32.5407C70.8472 32.6672 70.7028 32.7586 70.542 32.8038C70.3013 32.8862 70.0515 32.9385 69.7982 32.9596C69.4987 32.9596 69.0929 32.9596 68.6003 32.9596C68.1076 32.9596 67.7502 32.9596 67.4121 32.9596C67.1587 32.9385 66.9089 32.8862 66.6682 32.8038C66.5074 32.7586 66.363 32.6672 66.2528 32.5407C66.183 32.441 66.1458 32.3218 66.1466 32.1997V14.7709C66.1398 14.648 66.1775 14.5268 66.2528 14.43C66.363 14.3035 66.5074 14.2121 66.6682 14.1669C66.9082 14.0836 67.1586 14.0344 67.4121 14.0208C67.8061 13.9691 68.203 13.9431 68.6003 13.9428C69.0008 13.9442 69.4008 13.9702 69.7982 14.0208C70.0489 14.0536 70.2974 14.1024 70.542 14.1669C70.7028 14.2121 70.8472 14.3035 70.9574 14.43C71.0272 14.5296 71.0644 14.6489 71.0636 14.7709V32.1997Z" fill="white"/>
<path d="M105.551 32.1901C105.554 32.3141 105.513 32.4352 105.435 32.5311C105.348 32.6603 105.217 32.7536 105.068 32.7941C104.827 32.8755 104.577 32.9279 104.324 32.95C103.926 32.9977 103.526 33.0205 103.126 33.0182C102.739 33.0206 102.351 32.9978 101.967 32.95C101.714 32.9289 101.464 32.8765 101.223 32.7941C101.072 32.7505 100.94 32.6581 100.846 32.5311C100.78 32.4298 100.743 32.3116 100.74 32.1901V11.5366L93.4659 32.1609C93.42 32.3223 93.3255 32.4653 93.1954 32.5701C93.0582 32.6964 92.8924 32.7868 92.7124 32.8331C92.4613 32.922 92.1957 32.9617 91.9299 32.95C91.1837 33.002 90.4349 33.002 89.6887 32.95C89.4234 32.9245 89.1613 32.8722 88.9062 32.7941C88.7291 32.7407 88.5647 32.6511 88.4232 32.5311C88.3138 32.4331 88.2363 32.3041 88.201 32.1609L81.1491 11.5366V32.1609C81.1526 32.282 81.1113 32.4001 81.0331 32.4921C80.9359 32.6285 80.7908 32.7225 80.6274 32.7551C80.3831 32.8364 80.1302 32.8887 79.8739 32.911C79.4799 32.9631 79.083 32.9891 78.6857 32.989C78.298 32.9889 77.9107 32.9629 77.5265 32.911C77.2731 32.8899 77.0233 32.8376 76.7826 32.7551C76.5894 32.6869 76.4445 32.609 76.4059 32.4921C76.3362 32.396 76.2989 32.2799 76.2996 32.1609V9.57847C76.2731 9.03399 76.4488 8.49909 76.7923 8.07817C76.9806 7.89985 77.2024 7.76142 77.4446 7.67106C77.6869 7.5807 77.9447 7.54024 78.2027 7.55208H81.5644C82.081 7.53623 82.5974 7.58863 83.1004 7.70796C83.4954 7.80576 83.871 7.97047 84.2113 8.19507C84.5304 8.44319 84.7993 8.75075 85.0035 9.10109C85.2346 9.54264 85.4223 10.006 85.5638 10.4845L90.9639 25.6141H91.0315L96.673 10.5235C96.8061 10.0389 96.9941 9.57145 97.2333 9.13031C97.4076 8.78761 97.6472 8.48303 97.9385 8.23405C98.2169 7.99343 98.548 7.82311 98.9046 7.73718C99.3175 7.629 99.7435 7.57982 100.17 7.59106H103.599C103.905 7.5807 104.211 7.63032 104.498 7.73718C104.741 7.82143 104.961 7.96537 105.135 8.15609C105.302 8.34138 105.427 8.56068 105.502 8.79908C105.581 9.08114 105.621 9.37307 105.618 9.66615V32.2388L105.551 32.1901Z" fill="white"/>
<path d="M128.281 23.3151C128.302 24.6931 128.1 26.0653 127.682 27.3776C127.339 28.5494 126.738 29.6282 125.924 30.534C125.106 31.4546 124.083 32.1659 122.939 32.6091C121.607 33.1161 120.19 33.3576 118.766 33.3203C117.394 33.34 116.029 33.1259 114.728 32.6871C113.644 32.3032 112.671 31.6538 111.898 30.7971C111.126 29.9186 110.552 28.8815 110.217 27.7575C109.818 26.4312 109.623 25.0515 109.637 23.6658C109.614 22.2748 109.816 20.8894 110.236 19.5643C110.588 18.3898 111.199 17.3108 112.023 16.4078C112.839 15.5123 113.847 14.816 114.969 14.3717C116.305 13.8657 117.726 13.6242 119.152 13.6605C120.522 13.6331 121.886 13.8508 123.181 14.3035C124.282 14.6648 125.274 15.3056 126.059 16.1643C126.834 17.0449 127.407 18.0857 127.74 19.2136C128.129 20.5444 128.312 21.928 128.281 23.3151V23.3151ZM123.239 23.5001C123.236 22.7075 123.175 21.9162 123.055 21.1328C122.925 20.4723 122.697 19.8352 122.379 19.2428C122.062 18.72 121.612 18.2927 121.075 18.0056C120.454 17.6862 119.762 17.5319 119.065 17.5574C118.399 17.5473 117.739 17.6871 117.133 17.9666C116.593 18.2327 116.13 18.6355 115.791 19.1357C115.441 19.7072 115.178 20.3277 115.008 20.9769C114.819 21.7909 114.732 22.6254 114.747 23.4612C114.742 24.2591 114.817 25.0554 114.969 25.8383C115.1 26.4957 115.328 27.1296 115.646 27.7185C115.955 28.2478 116.407 28.677 116.95 28.9558C117.575 29.2742 118.269 29.4315 118.969 29.4137C119.636 29.4194 120.295 29.2764 120.901 28.9948C121.451 28.7438 121.917 28.3378 122.244 27.8257C122.601 27.2586 122.866 26.6368 123.026 25.9844C123.159 25.1629 123.23 24.3324 123.239 23.5001V23.5001Z" fill="white"/>
<path d="M148.732 32.2292C148.735 32.3532 148.694 32.4743 148.616 32.5702C148.505 32.6737 148.382 32.7622 148.249 32.8332C148.004 32.9145 147.752 32.9668 147.495 32.9891C147.167 32.9891 146.79 32.9891 146.307 32.9891C145.824 32.9891 145.409 32.9891 145.109 32.9891C144.855 32.9723 144.605 32.9199 144.365 32.8332C144.215 32.789 144.083 32.6967 143.989 32.5702C143.919 32.4705 143.882 32.3513 143.882 32.2292V22.2629C143.895 21.5919 143.83 20.9217 143.689 20.2658C143.592 19.8215 143.415 19.3989 143.167 19.0188C142.943 18.6801 142.633 18.4078 142.269 18.2297C141.865 18.025 141.417 17.9214 140.965 17.9277C140.265 17.9409 139.588 18.1799 139.033 18.6096C138.301 19.1823 137.65 19.8544 137.101 20.6068V32.2292C137.108 32.3521 137.07 32.4733 136.995 32.5702C136.884 32.6967 136.74 32.7881 136.579 32.8332C136.339 32.9157 136.089 32.968 135.835 32.9891C135.536 32.9891 135.13 32.9891 134.637 32.9891C134.145 32.9891 133.787 32.9891 133.449 32.9891C133.196 32.968 132.946 32.9157 132.705 32.8332C132.545 32.7881 132.4 32.6967 132.29 32.5702C132.22 32.4705 132.183 32.3513 132.184 32.2292V14.6933C132.177 14.5704 132.215 14.4492 132.29 14.3523C132.387 14.2462 132.502 14.1573 132.628 14.0893C132.833 14.0125 133.048 13.9634 133.266 13.9431C133.587 13.9221 133.91 13.9221 134.232 13.9431C134.579 13.9216 134.928 13.9216 135.275 13.9431C135.494 13.9564 135.709 14.0058 135.913 14.0893C136.042 14.1475 136.155 14.238 136.241 14.3523C136.313 14.4514 136.354 14.5704 136.357 14.6933V16.7294C137.186 15.7809 138.165 14.9777 139.255 14.3523C140.209 13.8379 141.274 13.567 142.356 13.5632C143.384 13.5223 144.408 13.7293 145.341 14.1672C146.115 14.5284 146.794 15.0692 147.321 15.7454C147.827 16.4586 148.194 17.2619 148.403 18.1128C148.644 19.1767 148.757 20.2658 148.741 21.3569V32.1903L148.732 32.2292Z" fill="white"/>
<path d="M169.531 22.9741C169.568 23.4503 169.418 23.9223 169.115 24.2893C168.977 24.435 168.808 24.5482 168.621 24.6206C168.434 24.693 168.233 24.7229 168.033 24.7082H157.465C157.447 25.3932 157.535 26.0768 157.726 26.7345C157.883 27.3057 158.163 27.8347 158.547 28.2835C158.954 28.7285 159.466 29.0635 160.035 29.2578C160.73 29.5 161.463 29.6154 162.198 29.5988C162.949 29.5999 163.699 29.538 164.44 29.4136C165.008 29.3108 165.57 29.1709 166.121 28.9947C166.604 28.8486 166.98 28.6927 167.318 28.5856C167.554 28.4797 167.805 28.4138 168.062 28.3907C168.166 28.3947 168.269 28.4212 168.362 28.4687C168.41 28.4963 168.451 28.5342 168.482 28.5796C168.514 28.6251 168.536 28.677 168.545 28.7317C168.545 28.8778 168.623 29.0337 168.661 29.2188C168.683 29.4944 168.683 29.7713 168.661 30.0469C168.683 30.2965 168.683 30.5475 168.661 30.7971C168.657 30.9782 168.631 31.1581 168.584 31.3329C168.584 31.479 168.507 31.5959 168.468 31.7031C168.427 31.8149 168.365 31.9176 168.284 32.0051C168.084 32.1668 167.859 32.2951 167.618 32.385C167.142 32.5658 166.654 32.7155 166.159 32.8332C165.56 32.989 164.894 33.0962 164.14 33.2131C163.336 33.3188 162.526 33.3676 161.715 33.3593C160.336 33.3917 158.96 33.1874 157.649 32.7552C156.555 32.4127 155.561 31.8076 154.75 30.9919C153.946 30.1355 153.345 29.1062 152.992 27.9815C152.596 26.5852 152.408 25.1374 152.432 23.6852C152.41 22.2593 152.612 20.8388 153.031 19.4766C153.386 18.3068 153.986 17.2272 154.789 16.3104C155.547 15.4285 156.505 14.7435 157.581 14.3132C158.759 13.847 160.016 13.6186 161.281 13.641C162.553 13.6148 163.818 13.833 165.01 14.284C165.993 14.6611 166.866 15.2808 167.55 16.0863C168.228 16.8687 168.723 17.7941 168.999 18.7947C169.323 19.9086 169.489 21.0631 169.492 22.2239V22.9741H169.531ZM164.787 21.542C164.896 20.388 164.606 19.2316 163.966 18.2686C163.642 17.8608 163.225 17.5381 162.751 17.3278C162.277 17.1174 161.759 17.0258 161.242 17.0605C160.688 17.0452 160.139 17.1621 159.639 17.4015C159.186 17.636 158.79 17.9687 158.479 18.3757C158.176 18.8017 157.938 19.2714 157.774 19.7689C157.613 20.331 157.512 20.9092 157.475 21.4932H164.787V21.542Z" fill="white"/>
<path d="M183.248 32.8721L181.123 39.0779C181.007 39.4189 180.678 39.6429 180.157 39.7988C179.413 39.9715 178.65 40.0468 177.887 40.0229C177.473 40.0238 177.06 39.9977 176.65 39.9449C176.4 39.93 176.158 39.8531 175.945 39.7209C175.813 39.6326 175.72 39.4966 175.684 39.3409C175.694 39.1486 175.73 38.9586 175.79 38.7759L178.109 32.9306C177.92 32.8614 177.763 32.7266 177.664 32.5506C177.525 32.4014 177.422 32.2211 177.365 32.0245L171.463 15.9402C171.306 15.6073 171.217 15.2462 171.202 14.8783C171.198 14.7737 171.216 14.6696 171.254 14.5724C171.293 14.4751 171.35 14.3869 171.424 14.3132C171.652 14.1434 171.923 14.0421 172.206 14.0209C172.688 13.9692 173.171 13.9432 173.655 13.943C174.093 13.9191 174.532 13.9191 174.969 13.943C175.222 13.9614 175.472 14.0105 175.713 14.0891C175.804 14.1189 175.887 14.1682 175.958 14.2339C176.028 14.2995 176.083 14.3798 176.119 14.4691C176.229 14.6843 176.32 14.9093 176.389 15.1413L180.456 26.8319H180.524L184.262 14.8977C184.294 14.6487 184.398 14.4147 184.562 14.2255C184.733 14.0891 184.936 13.9987 185.151 13.9625C185.648 13.905 186.148 13.8789 186.648 13.8845C187.11 13.8857 187.571 13.9117 188.03 13.9625C188.326 13.9757 188.612 14.0774 188.851 14.2547C188.935 14.3218 189.003 14.4078 189.048 14.506C189.093 14.6041 189.115 14.7116 189.112 14.8198C189.108 15.1154 189.056 15.4084 188.957 15.6868L183.248 32.8721Z" fill="white"/>
<path d="M203.999 27.2994C204.019 28.2115 203.827 29.1156 203.438 29.9395C203.071 30.7008 202.535 31.3673 201.873 31.8879C201.165 32.4291 200.352 32.8142 199.487 33.018C198.514 33.2794 197.509 33.404 196.502 33.3882C195.875 33.3944 195.247 33.3455 194.628 33.2421C194.099 33.1496 193.576 33.0227 193.063 32.8622C192.665 32.7444 192.278 32.5945 191.904 32.414C191.66 32.2968 191.435 32.1423 191.237 31.9561C191.065 31.7838 190.947 31.5633 190.899 31.3229C190.812 30.887 190.776 30.4423 190.793 29.9979C190.776 29.6994 190.776 29.4002 190.793 29.1017C190.793 28.8776 190.87 28.6828 190.909 28.5366C190.919 28.4819 190.94 28.43 190.972 28.3845C191.003 28.3391 191.045 28.3012 191.093 28.2736C191.186 28.2262 191.288 28.1996 191.392 28.1956C191.624 28.2255 191.844 28.3162 192.03 28.4587C192.368 28.6516 192.717 28.8272 193.073 28.9848C193.548 29.2018 194.035 29.3905 194.532 29.5498C195.135 29.7359 195.765 29.8247 196.396 29.8128C196.8 29.8213 197.203 29.7721 197.594 29.6667C197.907 29.5862 198.207 29.458 198.483 29.2868C198.728 29.1327 198.923 28.909 199.043 28.6438C199.169 28.362 199.235 28.0566 199.236 27.7475C199.242 27.3709 199.108 27.0058 198.859 26.7246C198.585 26.4179 198.257 26.1637 197.893 25.9744C197.459 25.7447 197.01 25.543 196.551 25.3704C196.068 25.1853 195.585 25.0002 195.024 24.7761C194.464 24.5521 193.981 24.2793 193.498 24.0162C193.008 23.7247 192.556 23.3711 192.155 22.9641C191.74 22.5315 191.412 22.022 191.189 21.4638C190.919 20.7933 190.791 20.0732 190.812 19.3497C190.797 18.5582 190.965 17.774 191.305 17.0603C191.629 16.354 192.112 15.7335 192.715 15.2482C193.389 14.7287 194.147 14.3329 194.957 14.0792C195.898 13.8037 196.874 13.6659 197.855 13.67C198.381 13.6694 198.907 13.7053 199.429 13.7772C199.895 13.8527 200.356 13.9535 200.811 14.0792C201.216 14.1961 201.555 14.3422 201.854 14.4591C202.061 14.5583 202.262 14.6722 202.453 14.8001C202.559 14.9073 202.675 14.9852 202.714 15.1021L202.82 15.4333C202.82 15.5892 202.82 15.7354 202.897 15.9692C202.92 16.2187 202.92 16.4698 202.897 16.7193C202.919 17.0079 202.919 17.2978 202.897 17.5864C202.889 17.7672 202.85 17.9452 202.781 18.1125C202.755 18.22 202.689 18.3138 202.598 18.3755C202.516 18.4162 202.428 18.4394 202.337 18.4437C202.141 18.4152 201.951 18.3526 201.777 18.2586C201.466 18.0854 201.143 17.9356 200.811 17.8104C200.444 17.6546 200.028 17.5084 199.545 17.3526C198.997 17.2102 198.431 17.1479 197.864 17.1675C197.475 17.1536 197.086 17.2063 196.715 17.3233C196.426 17.3842 196.155 17.5108 195.923 17.6935C195.723 17.8602 195.559 18.0656 195.44 18.2976C195.337 18.5338 195.288 18.79 195.295 19.0477C195.284 19.4087 195.416 19.759 195.662 20.0219C195.936 20.3185 196.264 20.5598 196.628 20.7331C197.071 20.9719 197.533 21.1739 198.009 21.3371C198.531 21.5222 199.053 21.7073 199.574 21.9412C200.11 22.1592 200.633 22.4097 201.139 22.6913C201.644 22.9782 202.109 23.3321 202.521 23.7434C203.412 24.7012 203.906 25.9664 203.902 27.2799L203.999 27.2994Z" fill="white"/>
<path d="M66.929 48.2744C66.887 48.2181 66.8634 48.15 66.8613 48.0796V40.4417C66.8598 40.3677 66.8837 40.2954 66.929 40.2371C66.9545 40.2119 66.9847 40.192 67.0178 40.1787C67.051 40.1653 67.0864 40.1586 67.1221 40.1592H70.2811C70.9536 40.1102 71.6187 40.3268 72.1358 40.7632C72.3433 40.9618 72.5066 41.2026 72.6149 41.4696C72.7231 41.7367 72.7738 42.0239 72.7637 42.3122C72.7793 42.6985 72.6746 43.0801 72.4643 43.4033C72.286 43.6735 72.0436 43.8946 71.7591 44.0463C72.0982 44.2204 72.385 44.4828 72.5898 44.8062C72.8167 45.1563 72.9345 45.5668 72.928 45.985C72.9357 46.4011 72.8323 46.8116 72.6285 47.1735C72.4286 47.5393 72.1262 47.8375 71.7591 48.0309C71.3322 48.2511 70.8569 48.3583 70.3776 48.3426H67.1318C67.0951 48.3463 67.0581 48.3422 67.0231 48.3304C66.9882 48.3187 66.9561 48.2996 66.929 48.2744V48.2744ZM70.1072 43.6371C70.52 43.6661 70.929 43.5413 71.2567 43.2864C71.3919 43.1652 71.4979 43.0143 71.5666 42.8455C71.6352 42.6767 71.6647 42.4943 71.6528 42.3122C71.6627 42.1399 71.633 41.9675 71.566 41.8086C71.4989 41.6498 71.3964 41.5087 71.2664 41.3964C70.9277 41.1589 70.5186 41.0455 70.1072 41.0749H67.9529V43.6274L70.1072 43.6371ZM70.2231 47.4268C70.651 47.4515 71.0712 47.3044 71.392 47.0177C71.6639 46.742 71.8166 46.369 71.8166 45.9801C71.8166 45.5913 71.6639 45.2182 71.392 44.9426C71.0677 44.663 70.6491 44.52 70.2231 44.5431H67.9529V47.4658L70.2231 47.4268Z" fill="#C4CBD0"/>
<path d="M75.1695 47.6121C74.6007 46.9771 74.2903 46.1491 74.3001 45.2934C74.3001 45.0889 74.3001 44.7381 74.3001 44.2705C74.3001 43.8029 74.3001 43.4327 74.3001 43.2184C74.2897 42.3597 74.6001 41.5285 75.1695 40.89C75.4807 40.5915 75.8502 40.362 76.2545 40.216C76.6587 40.0701 77.0887 40.0109 77.517 40.0424C78.1205 40.0263 78.7193 40.1531 79.2655 40.4126C79.691 40.6147 80.0537 40.9303 80.3142 41.3252C80.5747 41.7202 80.7231 42.1794 80.7435 42.6533C80.7454 42.6843 80.7403 42.7153 80.7286 42.744C80.7169 42.7727 80.6989 42.7983 80.6759 42.8189C80.6253 42.8639 80.5598 42.8883 80.4923 42.8871H79.9127C79.8466 42.8901 79.7816 42.8694 79.7292 42.8287C79.6732 42.7775 79.6357 42.7089 79.6229 42.6338C79.556 42.1343 79.2998 41.6804 78.9081 41.3673C78.4923 41.1054 78.0064 40.9794 77.517 41.0069C76.1645 41.0069 75.469 41.757 75.411 43.2768C75.411 43.4814 75.411 43.8029 75.411 44.251C75.411 44.6992 75.411 45.0207 75.411 45.2252C75.469 46.7353 76.1645 47.4854 77.517 47.4854C78.0058 47.5067 78.4899 47.3812 78.9081 47.125C79.2977 46.8143 79.5537 46.3642 79.6229 45.8682C79.6357 45.7931 79.6732 45.7245 79.7292 45.6734C79.7816 45.6326 79.8466 45.6119 79.9127 45.6149H80.4923C80.558 45.6149 80.6221 45.6353 80.6759 45.6734C80.6986 45.6963 80.7163 45.7237 80.728 45.7539C80.7396 45.7841 80.7449 45.8164 80.7435 45.8487C80.7218 46.3013 80.5855 46.7407 80.3474 47.125C80.0789 47.5408 79.7055 47.877 79.2655 48.0992C78.7185 48.3553 78.1197 48.4787 77.517 48.4597C77.0887 48.4911 76.6587 48.4319 76.2545 48.286C75.8502 48.14 75.4807 47.9105 75.1695 47.6121V47.6121Z" fill="#C4CBD0"/>
<path d="M82.308 48.2745C82.2661 48.2182 82.2425 48.1501 82.2404 48.0796V40.4418C82.2389 40.3677 82.2628 40.2955 82.308 40.2372C82.3335 40.212 82.3637 40.1921 82.3969 40.1787C82.4301 40.1654 82.4655 40.1587 82.5012 40.1592H87.2637C87.3013 40.1563 87.339 40.1616 87.3743 40.1748C87.4096 40.1879 87.4416 40.2086 87.4683 40.2355C87.4949 40.2623 87.5154 40.2947 87.5285 40.3303C87.5415 40.3659 87.5468 40.4039 87.5439 40.4418V40.8607C87.5444 40.8967 87.5378 40.9324 87.5246 40.9659C87.5113 40.9993 87.4916 41.0298 87.4666 41.0555C87.4088 41.1011 87.3371 41.1252 87.2637 41.1237H83.3127V43.7249H87.0029C87.0808 43.7238 87.1564 43.7515 87.2154 43.8028C87.2399 43.8305 87.2585 43.8629 87.2701 43.8981C87.2818 43.9333 87.2861 43.9705 87.283 44.0074V44.4068C87.2854 44.4422 87.2806 44.4777 87.269 44.5112C87.2574 44.5447 87.2392 44.5755 87.2154 44.6017C87.1564 44.653 87.0808 44.6807 87.0029 44.6796H83.3127V47.3782H87.3603C87.3977 47.3764 87.4349 47.3823 87.4699 47.3957C87.5048 47.4092 87.5366 47.4297 87.5632 47.4562C87.5877 47.4838 87.6063 47.5162 87.6179 47.5514C87.6295 47.5866 87.6339 47.6238 87.6308 47.6607V48.0796C87.6299 48.152 87.6023 48.2214 87.5536 48.2745C87.4991 48.3194 87.4307 48.3435 87.3603 48.3427H82.5302C82.4905 48.3494 82.4497 48.3467 82.4112 48.3349C82.3726 48.3231 82.3373 48.3024 82.308 48.2745V48.2745Z" fill="#C4CBD0"/>
<path d="M89.2248 48.2745C89.1787 48.2205 89.1546 48.1508 89.1572 48.0796V40.4417C89.1541 40.4048 89.1585 40.3676 89.1701 40.3324C89.1818 40.2972 89.2004 40.2648 89.2248 40.2372C89.2486 40.2122 89.2771 40.1925 89.3086 40.1791C89.3402 40.1657 89.3741 40.1589 89.4084 40.1592H93.8618C93.8976 40.1575 93.9334 40.1636 93.9668 40.177C94.0001 40.1905 94.0302 40.211 94.055 40.2372C94.0794 40.2648 94.0981 40.2972 94.1097 40.3324C94.1213 40.3676 94.1257 40.4048 94.1226 40.4417V40.8802C94.1248 40.9141 94.1199 40.948 94.1082 40.9799C94.0966 41.0118 94.0784 41.0408 94.055 41.0652C94.0315 41.0931 94.0017 41.1149 93.968 41.1284C93.9343 41.142 93.8979 41.1471 93.8618 41.1432H90.2392V48.0796C90.2409 48.1158 90.2348 48.1519 90.2215 48.1855C90.2081 48.2191 90.1878 48.2495 90.1619 48.2745C90.1083 48.321 90.0393 48.3453 89.9687 48.3427H89.4084C89.3748 48.3448 89.3411 48.3399 89.3095 48.3281C89.2779 48.3164 89.249 48.2981 89.2248 48.2745V48.2745Z" fill="#C4CBD0"/>
<path d="M94.2386 49.8917C94.2151 49.8673 94.197 49.8382 94.1853 49.8063C94.1737 49.7745 94.1688 49.7405 94.1709 49.7066V47.6023C94.1686 47.5669 94.1734 47.5314 94.185 47.4979C94.1966 47.4644 94.2148 47.4336 94.2386 47.4074C94.2623 47.3825 94.2908 47.3627 94.3223 47.3493C94.3539 47.3359 94.3879 47.3292 94.4221 47.3295H94.6829C95.05 47.3295 95.3302 46.9788 95.5137 46.2676C95.7439 45.1795 95.8412 44.0671 95.8035 42.9552V40.432C95.8004 40.3957 95.8058 40.3592 95.8193 40.3253C95.8327 40.2915 95.8538 40.2613 95.8808 40.2372C95.9063 40.212 95.9365 40.1921 95.9697 40.1787C96.0028 40.1653 96.0383 40.1587 96.074 40.1592H100.556C100.592 40.1575 100.628 40.1636 100.661 40.177C100.695 40.1905 100.725 40.211 100.75 40.2372C100.775 40.2644 100.795 40.2965 100.809 40.3316C100.822 40.3667 100.828 40.4042 100.827 40.4417V47.3295H101.387C101.424 47.3282 101.462 47.3344 101.496 47.3478C101.531 47.3612 101.563 47.3815 101.59 47.4074C101.617 47.4316 101.638 47.4618 101.652 47.4956C101.665 47.5294 101.67 47.566 101.667 47.6023V49.7066C101.67 49.7429 101.665 49.7794 101.652 49.8132C101.638 49.8471 101.617 49.8773 101.59 49.9014C101.563 49.9261 101.53 49.9449 101.496 49.9566C101.461 49.9683 101.424 49.9727 101.387 49.9696H100.846C100.811 49.972 100.776 49.9672 100.743 49.9554C100.709 49.9437 100.679 49.9253 100.653 49.9014C100.628 49.8757 100.608 49.8452 100.595 49.8118C100.582 49.7784 100.575 49.7426 100.576 49.7066V48.3427H95.2529V49.7066C95.255 49.7405 95.2501 49.7745 95.2385 49.8063C95.2268 49.8382 95.2087 49.8673 95.1853 49.8917C95.1594 49.9192 95.1277 49.9404 95.0926 49.9539C95.0575 49.9674 95.0198 49.9727 94.9824 49.9696H94.4221C94.3875 49.9727 94.3527 49.9673 94.3207 49.9537C94.2887 49.9401 94.2605 49.9188 94.2386 49.8917V49.8917ZM99.7352 47.3295V41.2016H96.8372V43.1501C96.8531 44.0468 96.7917 44.9432 96.6536 45.8292C96.5772 46.3826 96.3792 46.9118 96.074 47.3782L99.7352 47.3295Z" fill="#C4CBD0"/>
<path d="M102.749 48.2743C102.707 48.2293 102.683 48.1704 102.682 48.1087V47.9821L105.58 40.4221C105.604 40.3417 105.654 40.2718 105.722 40.224C105.791 40.1762 105.873 40.1533 105.956 40.1591H106.739C106.822 40.1533 106.904 40.1762 106.973 40.224C107.041 40.2718 107.092 40.3417 107.116 40.4221L110.014 47.9821V48.1087C110.013 48.1402 110.006 48.1713 109.993 48.1998C109.979 48.2284 109.96 48.2538 109.936 48.2743C109.915 48.2965 109.89 48.314 109.861 48.3257C109.833 48.3374 109.803 48.3431 109.772 48.3425H109.222C109.153 48.3439 109.085 48.3235 109.028 48.2841C108.987 48.246 108.954 48.1995 108.932 48.1477L108.285 46.4623H104.42L103.783 48.1477C103.76 48.2058 103.719 48.2554 103.668 48.2902C103.616 48.3249 103.555 48.3432 103.493 48.3425H102.875C102.827 48.3343 102.782 48.3104 102.749 48.2743V48.2743ZM104.739 45.4978H107.908L106.323 41.2989L104.739 45.4978Z" fill="#C4CBD0"/>
<path d="M114.622 47.6121C114.053 46.9771 113.743 46.1491 113.752 45.2934C113.752 45.0889 113.752 44.7381 113.752 44.2705C113.752 43.8029 113.752 43.4327 113.752 43.2184C113.742 42.3597 114.052 41.5285 114.622 40.89C114.933 40.5915 115.302 40.362 115.707 40.216C116.111 40.0701 116.541 40.0109 116.969 40.0424C117.573 40.0263 118.172 40.1531 118.718 40.4126C119.143 40.6147 119.506 40.9303 119.766 41.3252C120.027 41.7202 120.175 42.1794 120.196 42.6533C120.198 42.6843 120.193 42.7153 120.181 42.744C120.169 42.7727 120.151 42.7983 120.128 42.8189C120.078 42.8639 120.012 42.8883 119.945 42.8871H119.365C119.299 42.8901 119.234 42.8694 119.181 42.8287C119.125 42.7775 119.088 42.7089 119.075 42.6338C119.008 42.1343 118.752 41.6804 118.36 41.3673C117.945 41.1054 117.459 40.9794 116.969 41.0069C115.617 41.0069 114.921 41.757 114.863 43.2768C114.863 43.4814 114.863 43.8029 114.863 44.251C114.863 44.6992 114.863 45.0207 114.863 45.2252C114.921 46.7353 115.617 47.4854 116.969 47.4854C117.458 47.5067 117.942 47.3812 118.36 47.125C118.75 46.8143 119.006 46.3642 119.075 45.8682C119.088 45.7931 119.125 45.7245 119.181 45.6734C119.234 45.6326 119.299 45.6119 119.365 45.6149H119.945C120.01 45.6149 120.074 45.6353 120.128 45.6734C120.151 45.6963 120.169 45.7237 120.18 45.7539C120.192 45.7841 120.197 45.8164 120.196 45.8487C120.174 46.3013 120.038 46.7407 119.8 47.125C119.531 47.5408 119.158 47.877 118.718 48.0992C118.171 48.3553 117.572 48.4787 116.969 48.4597C116.541 48.4911 116.111 48.4319 115.707 48.286C115.302 48.14 114.933 47.9105 114.622 47.6121V47.6121Z" fill="#C4CBD0"/>
<path d="M124.697 48.2744C124.651 48.2204 124.627 48.1508 124.629 48.0796V40.4417C124.626 40.4047 124.631 40.3675 124.642 40.3324C124.654 40.2972 124.672 40.2648 124.697 40.2371C124.721 40.2122 124.749 40.1924 124.781 40.179C124.812 40.1656 124.846 40.1588 124.881 40.1592H128.049C128.722 40.1102 129.387 40.3268 129.904 40.7632C130.111 40.9618 130.275 41.2026 130.383 41.4696C130.491 41.7367 130.542 42.0239 130.532 42.3122C130.535 42.667 130.443 43.016 130.264 43.3216C130.085 43.6272 129.827 43.8778 129.517 44.0463C129.86 44.2198 130.15 44.4821 130.358 44.8062C130.582 45.1571 130.696 45.5678 130.686 45.985C130.692 46.3997 130.593 46.809 130.396 47.1735C130.19 47.5376 129.885 47.8349 129.517 48.0309C129.091 48.2519 128.615 48.3592 128.136 48.3426H124.881C124.847 48.3448 124.813 48.3398 124.782 48.3281C124.75 48.3163 124.721 48.2981 124.697 48.2744V48.2744ZM127.875 43.6371C128.288 43.6651 128.697 43.5405 129.025 43.2864C129.158 43.1642 129.262 43.013 129.329 42.8442C129.396 42.6754 129.424 42.4935 129.411 42.3122C129.423 42.1396 129.395 41.9665 129.328 41.8073C129.26 41.6481 129.157 41.5072 129.025 41.3964C128.69 41.1589 128.284 41.0453 127.875 41.0749H125.721V43.6274L127.875 43.6371ZM127.991 47.4269C128.202 47.4388 128.412 47.4088 128.611 47.3386C128.81 47.2684 128.993 47.1593 129.15 47.0177C129.422 46.742 129.575 46.369 129.575 45.9801C129.575 45.5913 129.422 45.2182 129.15 44.9426C128.83 44.6627 128.414 44.5195 127.991 44.5431H125.721V47.4658L127.991 47.4269Z" fill="#C4CBD0"/>
<path d="M131.653 48.2744C131.63 48.2534 131.613 48.2277 131.601 48.1991C131.589 48.1705 131.584 48.1397 131.585 48.1088V47.9822L134.483 40.4222C134.505 40.3426 134.554 40.273 134.62 40.2251C134.687 40.1772 134.768 40.1539 134.85 40.1592H135.594C135.676 40.1539 135.757 40.1772 135.824 40.2251C135.891 40.273 135.939 40.3426 135.961 40.4222L138.859 47.9822V48.1088C138.86 48.1397 138.855 48.1705 138.843 48.1991C138.832 48.2277 138.814 48.2534 138.792 48.2744C138.744 48.3189 138.682 48.3432 138.618 48.3426H138.077C138.008 48.3455 137.94 48.3249 137.884 48.2842C137.839 48.2488 137.806 48.2015 137.787 48.1478L137.14 46.4624H133.276L132.628 48.1478C132.608 48.2059 132.57 48.256 132.52 48.291C132.469 48.326 132.409 48.3441 132.348 48.3426H131.856C131.819 48.3494 131.781 48.3467 131.745 48.3348C131.71 48.3229 131.678 48.3021 131.653 48.2744V48.2744ZM133.585 45.4979H136.763L135.179 41.299L133.585 45.4979Z" fill="#C4CBD0"/>
<path d="M140.27 48.2745C140.221 48.2214 140.193 48.152 140.192 48.0796V40.4418C140.189 40.4048 140.194 40.3676 140.205 40.3324C140.217 40.2973 140.236 40.2648 140.26 40.2372C140.287 40.2112 140.319 40.1909 140.354 40.1776C140.388 40.1642 140.426 40.1579 140.463 40.1592H141.004C141.064 40.1556 141.124 40.1704 141.176 40.2017C141.227 40.233 141.268 40.2793 141.294 40.3346L143.767 45.118L146.259 40.3346C146.282 40.2817 146.32 40.2368 146.368 40.2056C146.416 40.1744 146.472 40.1583 146.529 40.1592H147.08C147.116 40.1575 147.152 40.1636 147.185 40.1771C147.218 40.1905 147.248 40.211 147.273 40.2372C147.298 40.2648 147.316 40.2973 147.328 40.3324C147.34 40.3676 147.344 40.4048 147.341 40.4418V48.0796C147.346 48.1153 147.342 48.1516 147.331 48.1857C147.319 48.2199 147.3 48.2508 147.275 48.2763C147.25 48.3018 147.219 48.321 147.185 48.3325C147.151 48.344 147.115 48.3475 147.08 48.3427H146.549C146.514 48.345 146.478 48.3402 146.445 48.3285C146.412 48.3168 146.382 48.2984 146.356 48.2745C146.314 48.2181 146.29 48.1501 146.288 48.0796V42.2343L144.308 46.1312C144.277 46.2038 144.226 46.2657 144.161 46.309C144.095 46.3524 144.019 46.3752 143.941 46.3747H143.593C143.514 46.3735 143.437 46.35 143.37 46.307C143.303 46.264 143.25 46.2031 143.216 46.1312L141.284 42.2343V48.0796C141.286 48.1158 141.28 48.1519 141.266 48.1855C141.253 48.2191 141.233 48.2495 141.207 48.2745C141.182 48.2981 141.154 48.3164 141.122 48.3282C141.09 48.3399 141.057 48.3448 141.023 48.3427H140.501C140.46 48.351 140.418 48.3492 140.377 48.3373C140.337 48.3254 140.3 48.3039 140.27 48.2745V48.2745Z" fill="#C4CBD0"/>
<path d="M149.35 48.2744C149.304 48.2169 149.28 48.144 149.283 48.0698V40.4416C149.28 40.4047 149.284 40.3675 149.296 40.3323C149.307 40.2971 149.326 40.2647 149.35 40.2371C149.377 40.2111 149.409 40.1908 149.444 40.1774C149.479 40.1641 149.516 40.1578 149.553 40.1591H150.104C150.14 40.1586 150.175 40.1652 150.208 40.1786C150.241 40.192 150.272 40.2118 150.297 40.2371C150.323 40.2643 150.343 40.2963 150.356 40.3315C150.369 40.3666 150.376 40.4041 150.374 40.4416V46.5597L154.741 40.3247C154.768 40.2736 154.808 40.2311 154.858 40.2018C154.907 40.1726 154.964 40.1578 155.021 40.1591H155.562C155.598 40.1586 155.633 40.1652 155.666 40.1786C155.699 40.192 155.73 40.2118 155.755 40.2371C155.781 40.2643 155.801 40.2963 155.814 40.3315C155.827 40.3666 155.834 40.4041 155.832 40.4416V48.0795C155.831 48.1519 155.804 48.2213 155.755 48.2744C155.729 48.2983 155.699 48.3166 155.665 48.3284C155.632 48.3401 155.597 48.3449 155.562 48.3425H155.04C154.967 48.3458 154.894 48.3215 154.837 48.2744C154.789 48.2213 154.761 48.1519 154.76 48.0795V42.0199L150.403 48.1867C150.375 48.236 150.334 48.2765 150.285 48.304C150.235 48.3315 150.18 48.3448 150.123 48.3425H149.563C149.525 48.3492 149.485 48.3466 149.448 48.3347C149.411 48.3228 149.378 48.3021 149.35 48.2744Z" fill="#C4CBD0"/>
</svg>
