<svg width="206" height="56" viewBox="0 0 206 56" fill="none" xmlns="http://www.w3.org/2000/svg">
<path d="M17.8837 54.1874C13.65 52.5892 9.86487 49.9964 6.84931 46.6287C3.83374 43.261 1.67657 39.2178 0.560669 34.8417C0.79516 35.6603 1.10782 36.7909 1.39117 37.5608C1.8848 38.9564 2.49941 40.3065 3.22802 41.5956C3.91925 42.8648 4.72019 44.0714 5.62177 45.2016C7.36854 47.454 9.45103 49.4261 11.7967 51.0492C12.9585 51.8635 14.1837 52.5837 15.4606 53.2031C16.1739 53.515 17.1118 53.9438 17.8349 54.1777C17.8425 54.1812 17.8509 54.183 17.8593 54.183C17.8677 54.183 17.8761 54.1812 17.8837 54.1777" fill="#0B4765"/>
<path d="M15.9882 50.8543C12.2769 48.9452 9.05033 46.2179 6.55329 42.8794C4.05625 39.5409 2.35437 35.6789 1.57678 31.5865C0.9564 28.3181 0.9564 24.9627 1.57678 21.6943C1.16446 21.8071 0.785644 22.0177 0.472714 22.3083C-0.157571 25.661 -0.157571 29.1012 0.472714 32.4539C1.27334 36.6507 3.02024 40.6109 5.58128 44.0351C8.14232 47.4593 11.4504 50.2577 15.2554 52.2187L15.998 50.8543" fill="#0B4765"/>
<path d="M38.1379 1.91958C42.4826 3.61501 46.3255 6.38167 49.3071 9.96092C52.2888 13.5402 54.3119 17.8151 55.1874 22.3861C55.8953 26.1009 55.7987 29.9238 54.9039 33.5983C54.009 37.2728 52.3368 40.7139 49.9992 43.6908C50.1451 44.0659 50.1889 44.4727 50.1263 44.8701C52.7303 41.5377 54.5231 37.6476 55.3632 33.5063C55.6699 32.0562 55.8497 30.5822 55.9006 29.1011C55.9641 26.9854 55.8069 24.8689 55.4316 22.7857C55.1551 21.2864 54.7531 19.8129 54.2298 18.3805C53.7348 16.9886 53.1202 15.6419 52.393 14.3555C51.7018 13.0863 50.9008 11.8797 49.9992 10.7494C49.1307 9.61966 48.1699 8.5635 47.1267 7.59175C45.0678 5.62199 42.7184 3.97859 40.1604 2.71876C39.5448 2.44587 38.7241 2.06577 38.0988 1.81238V1.87085" fill="#0B4765"/>
<path d="M24.6645 51.4195C19.4278 50.5152 14.5913 48.0417 10.7987 44.3282C7.00597 40.6147 4.43688 35.8371 3.43321 30.6313C3.31596 29.9589 3.2085 29.2961 3.1401 28.6821C2.57597 28.89 2.02461 29.1308 1.48889 29.4033C1.55728 30.0953 1.66476 30.797 1.79177 31.4987C2.84574 36.9735 5.54678 41.9982 9.53519 45.9035C13.5236 49.8087 18.6101 52.4093 24.1173 53.3589C24.2834 52.8132 24.469 52.1797 24.6645 51.4682" fill="#FFB606"/>
<path d="M51.6505 14.8039C52.8168 17.0499 53.6494 19.453 54.1224 21.938C54.2592 22.7177 54.3764 23.4876 54.4448 24.2575C54.7931 24.3746 55.1223 24.542 55.4218 24.7546C55.3511 23.937 55.2369 23.1237 55.0799 22.3181C54.5944 19.7011 53.7184 17.1715 52.4809 14.8137C52.207 14.7577 51.9244 14.7577 51.6505 14.8137" fill="#FFB606"/>
<path d="M32.1876 46.4295C26.7034 47.0657 21.1806 45.6116 16.7254 42.3586C12.2703 39.1056 9.21159 34.2937 8.16204 28.8868C7.5801 25.8338 7.68399 22.6901 8.46621 19.682C9.24843 16.6738 10.6895 13.8761 12.6858 11.4902C11.5341 10.884 10.3349 10.3723 9.10003 9.96008C6.74679 12.7744 5.04718 16.0734 4.12316 19.6204C3.19914 23.1673 3.07362 26.8743 3.75558 30.4754C4.98908 36.8713 8.60059 42.5659 13.8662 46.4175C19.1318 50.2692 25.6623 51.9932 32.1486 51.244C32.2072 49.8796 32.2267 48.2618 32.1486 46.4198" fill="#FF3900"/>
<path d="M27.5272 3.9177C32.8756 3.53311 38.1796 5.11966 42.4334 8.37651C46.6871 11.6334 49.5948 16.334 50.605 21.5872C51.1326 24.3632 51.096 27.2167 50.4976 29.9784C51.6453 30.4887 52.7441 31.1019 53.7804 31.8107C54.4918 28.5461 54.5383 25.1722 53.9172 21.8893C52.7188 15.6828 49.2803 10.1301 44.2529 6.28275C39.2255 2.43544 32.9583 0.560645 26.6381 1.01341C27.0139 1.96218 27.3112 2.94004 27.5272 3.9372" fill="#FF3900"/>
<path d="M17.6785 40.7575C13.5951 37.7429 10.8034 33.3014 9.86215 28.3217C9.14719 24.5605 9.55835 20.6726 11.0444 17.1431L9.89146 16.8896C8.31122 20.6201 7.87598 24.7343 8.64084 28.7115C9.63652 33.9712 12.5892 38.6607 16.9067 41.8393L17.6883 40.7575" fill="#0B4765"/>
<path d="M43.1599 10.6229C45.3221 12.6252 47.013 15.0802 48.1111 17.8118C49.2091 20.5433 49.6871 23.4835 49.5107 26.4211C49.8722 26.5088 50.2142 26.5965 50.5366 26.694C50.6422 24.9817 50.5339 23.263 50.2142 21.5774C49.3776 17.1394 47.1383 13.0853 43.8243 10.0089C43.6093 10.2038 43.3846 10.4085 43.1599 10.6327" fill="#0B4765"/>
<path d="M41.7726 50.2012C37.743 52.8632 33.0108 54.2697 28.1777 54.2419C23.3445 54.2141 18.6289 52.7533 14.6302 50.0453C11.9016 48.1976 9.59443 45.7965 7.85931 42.9989L8.53348 42.8235C10.2211 45.5295 12.4576 47.8533 15.0992 49.6457C18.9822 52.2868 23.5672 53.7117 28.267 53.7377C32.9668 53.7638 37.5673 52.3898 41.4795 49.7919L41.8215 50.1914" fill="#FFB606"/>
<path d="M23.961 7.24089C27.1153 6.61745 30.3626 6.6273 33.5131 7.26988C36.6636 7.91245 39.6541 9.17486 42.3099 10.9833C46.3142 13.6866 49.385 17.5563 51.1034 22.0645C50.908 22.2204 50.693 22.3666 50.4781 22.5128C48.8166 18.1556 45.8525 14.4131 41.9875 11.7923C39.4125 10.0383 36.5126 8.81431 33.4576 8.19179C30.4026 7.56926 27.2538 7.56075 24.1955 8.16676C24.1271 7.86463 24.0685 7.57225 24.0001 7.27987" fill="#FFB606"/>
<path d="M35.412 52.3648C32.0636 53.4276 28.5168 53.7166 25.0399 53.2101C21.563 52.7035 18.2472 51.4147 15.3434 49.4411C11.7053 46.9687 8.87522 43.4849 7.20465 39.4222C8.10353 39.2955 9.10012 39.1298 10.1358 38.9056C11.5835 42.438 14.0443 45.4655 17.2096 47.6088C19.7323 49.3258 22.6142 50.4464 25.6363 50.8855C28.6584 51.3246 31.741 51.0706 34.6499 50.1427C34.9235 50.9906 35.1677 51.7216 35.3729 52.3551" fill="#1C97F8"/>
<path d="M14.6693 12.845C18.5481 9.92693 23.2448 8.29222 28.1015 8.16988C32.9582 8.04754 37.7316 9.44372 41.7531 12.1628C44.2468 13.8502 46.3708 16.0253 47.9964 18.5561C47.3027 19.2481 46.5015 19.9985 45.6222 20.7782C44.2105 18.5793 42.3656 16.6893 40.1996 15.223C36.7056 12.8575 32.5567 11.6428 28.3353 11.7495C24.1139 11.8561 20.032 13.2787 16.6625 15.8175C15.9493 14.765 15.2751 13.7709 14.7084 12.845" fill="#1C97F8"/>
<path d="M28.5043 55.6883C23.0179 55.7929 17.6352 54.1883 13.106 51.098C9.95808 48.9656 7.32417 46.1625 5.39456 42.891C3.46495 39.6196 2.28783 35.9615 1.94818 32.181C2.66077 32.4135 3.38881 32.5959 4.12698 32.7268C4.43518 36.231 5.52085 39.623 7.30533 42.6571C9.08981 45.6912 11.5284 48.2915 14.4446 50.2695C18.6372 53.1235 23.6149 54.6083 28.69 54.5188C28.6525 54.925 28.5905 55.3286 28.5043 55.7273" fill="#16AFB2"/>
<path d="M27.5272 3.67389C33.1675 3.47464 38.724 5.07967 43.3847 8.25449C44.4964 9.007 45.5452 9.84789 46.521 10.769C46.2182 11.4122 45.8273 12.1334 45.3584 12.9228C43.0056 10.7264 40.2403 9.01609 37.222 7.89039C34.2036 6.76469 30.9918 6.24584 27.7715 6.36377C27.6836 5.38918 27.5956 4.46331 27.5175 3.67389" fill="#16AFB2"/>
<path d="M40.649 52.8911C36.2666 55.1779 31.3447 56.2369 26.407 55.9555C21.4693 55.674 16.7004 54.0626 12.6077 51.2927C9.55116 49.2123 6.96511 46.5166 5.01605 43.379H5.41665C7.33529 46.473 9.88529 49.1295 12.9008 51.1758C16.9309 53.9069 21.6284 55.4962 26.4926 55.7742C31.3568 56.0523 36.2055 55.0087 40.5219 52.7546L40.649 52.8813" fill="#FF3900"/>
<path d="M5.05518 12.9327C9.3308 6.91345 15.8012 2.80545 23.0783 1.48997C30.3553 0.174492 37.8594 1.75632 43.9807 5.89612C45.6213 7.03027 47.1346 8.33726 48.4947 9.79451C48.4376 10.2007 48.3259 10.5974 48.1625 10.9738C46.8364 9.57195 45.3622 8.31717 43.7658 7.23131C37.8045 3.19669 30.4961 1.65145 23.4065 2.92665C16.3169 4.20184 10.0099 8.19603 5.8368 14.0535C5.54321 13.7039 5.28163 13.3289 5.05518 12.9327Z" fill="#0B4765"/>
<path d="M7.11672 47.0435C6.10302 45.9516 5.18149 44.7781 4.36147 43.5349C3.53508 42.2988 2.81596 40.9946 2.21196 39.6365C1.59343 38.3077 1.09003 36.9285 0.707294 35.514L0.28717 33.7987C0.28717 33.7987 0.28717 33.7987 0.28717 33.8572C0.340987 34.0213 0.43117 34.1712 0.550992 34.2957C1.76311 40.0351 4.8155 45.2249 9.24671 49.0804C8.59209 48.4664 7.71274 47.6672 7.10697 47.0045" fill="#16AFB2"/>
<path d="M20.8834 1.17912C24.7763 0.171417 28.8403 0.00664189 32.8023 0.695865C36.7644 1.38509 40.5326 2.91233 43.8537 5.17496C46.8934 7.23678 49.4853 9.88849 51.4747 12.9717C51.4968 13.0149 51.5132 13.0608 51.5236 13.1082C51.5686 13.284 51.5686 13.4684 51.5236 13.6442C50.6244 12.2526 49.5973 10.9475 48.4556 9.74582C47.0956 8.28857 45.5822 6.98158 43.9417 5.84743C40.6333 3.59732 36.881 2.0785 32.9363 1.39271C28.9915 0.706928 24.9454 0.870017 21.069 1.87107C21.0006 1.63717 20.9517 1.44226 20.9029 1.28632V1.14988" fill="#16AFB2"/>
<path d="M16.555 2.33883C17.1901 2.09518 18.0206 1.74431 18.6556 1.52015C19.9968 1.05919 21.3721 0.703993 22.769 0.457846C24.1649 0.197119 25.5798 0.050446 26.9996 0.0192803C28.4261 -0.037441 29.8548 0.031051 31.2693 0.223952C32.7079 0.388855 34.1297 0.675765 35.5195 1.08159C36.9446 1.48544 38.3336 2.00703 39.6719 2.64095C41.0588 3.28189 42.389 4.03825 43.6485 4.90201C45.3836 6.1141 46.9909 7.49862 48.4458 9.0343C49.4593 10.1194 50.3809 11.2864 51.2011 12.5234C49.2376 9.59091 46.7265 7.06294 43.8048 5.07744C39.85 2.39029 35.2753 0.749769 30.5105 0.309937C25.7456 -0.129894 20.9468 0.645386 16.5648 2.56298C16.5648 2.49476 16.5061 2.37781 16.5648 2.33883" fill="#0B4765"/>
<path d="M71.9277 15.6059C71.9716 15.9748 71.9405 16.3487 71.8365 16.7053C71.7324 17.062 71.5574 17.3941 71.322 17.6818C70.6553 18.1276 69.8537 18.3275 69.0552 18.2471C68.2593 18.3345 67.4584 18.1339 66.7982 17.6818C66.3669 17.128 66.1642 16.4307 66.2316 15.7326C66.1891 15.3645 66.2199 14.9917 66.3222 14.6355C66.4245 14.2792 66.5962 13.9466 66.8275 13.6567C67.4948 13.2125 68.2959 13.0127 69.0943 13.0915C69.8811 13.0033 70.6731 13.2042 71.322 13.6567C71.5475 13.9253 71.7172 14.236 71.8212 14.5706C71.9252 14.9053 71.9614 15.2572 71.9277 15.6059ZM71.5467 38.9963C71.5488 39.1186 71.5111 39.2383 71.4392 39.3374C71.3242 39.4597 71.1795 39.5503 71.0191 39.6005C70.7751 39.6792 70.5225 39.7283 70.2667 39.7467C69.8632 39.7696 69.4587 39.7696 69.0552 39.7467C68.6549 39.7687 68.2537 39.7687 67.8534 39.7467C67.5946 39.7272 67.3389 39.6781 67.0913 39.6005C66.9344 39.5488 66.7933 39.4583 66.681 39.3374C66.608 39.2382 66.5671 39.1192 66.5637 38.9963V21.551C66.5602 21.4298 66.602 21.3117 66.681 21.2196C66.7875 21.092 66.9307 21.0001 67.0913 20.9565C67.3384 20.8752 67.5942 20.8228 67.8534 20.8005C68.2519 20.7488 68.6534 20.7228 69.0552 20.7226C69.4603 20.7239 69.8649 20.7499 70.2667 20.8005C70.5696 20.8005 70.8334 20.9175 71.0191 20.9565C71.1835 20.9976 71.3306 21.0898 71.4392 21.2196C71.5054 21.3179 71.5426 21.4327 71.5467 21.551V38.9963Z" fill="white"/>
<path d="M106.428 38.9864C106.431 39.1105 106.39 39.2316 106.311 39.3275C106.217 39.4509 106.087 39.5427 105.94 39.5907C105.693 39.6729 105.437 39.722 105.177 39.7369C104.779 39.7889 104.378 39.815 103.976 39.8148C103.584 39.8148 103.192 39.7887 102.803 39.7369C102.547 39.7232 102.294 39.674 102.051 39.5907C101.9 39.5428 101.768 39.4512 101.67 39.3275C101.599 39.2278 101.562 39.1085 101.562 38.9864V18.3152L94.1955 38.9474C94.159 39.1135 94.0657 39.2617 93.9316 39.3665C93.7904 39.4894 93.6235 39.5793 93.4431 39.6297C93.1884 39.7146 92.9199 39.751 92.6517 39.7369C91.897 39.7888 91.1397 39.7888 90.385 39.7369C90.1164 39.7189 89.8508 39.6699 89.5935 39.5907C89.4168 39.5314 89.2516 39.4424 89.105 39.3275C88.9941 39.2258 88.9159 39.0935 88.8803 38.9474L81.7479 18.3152V38.9474C81.7511 39.0715 81.7095 39.1926 81.6306 39.2885C81.5291 39.4216 81.3838 39.5148 81.2203 39.5517C80.9732 39.633 80.7174 39.6853 80.4582 39.7076C80.059 39.7504 79.6579 39.7732 79.2564 39.7758C78.8646 39.7737 78.4733 39.7509 78.0839 39.7076C77.8277 39.6865 77.5751 39.6341 77.3316 39.5517C77.1362 39.4737 76.9897 39.4055 76.9506 39.2885C76.8776 39.1894 76.8367 39.0704 76.8333 38.9474V16.3563C76.8063 15.793 76.9989 15.2412 77.3707 14.8164C77.5611 14.638 77.7855 14.4995 78.0305 14.4091C78.2755 14.3187 78.5362 14.2783 78.7972 14.2901H82.1973C82.7159 14.2759 83.2344 14.325 83.741 14.4363C84.1447 14.5356 84.5282 14.7037 84.8744 14.9334C85.1942 15.178 85.463 15.4826 85.6658 15.83C85.9077 16.2713 86.0979 16.7389 86.2325 17.2237L91.6844 32.3786H91.7626L97.4588 17.2821C97.6022 16.8004 97.792 16.3337 98.0255 15.8885C98.2076 15.544 98.4529 15.2365 98.7485 14.9821C99.031 14.7449 99.3658 14.5779 99.7255 14.4948C100.147 14.3872 100.581 14.338 101.015 14.3486H104.386C104.696 14.3382 105.004 14.3879 105.295 14.4948C105.543 14.5755 105.765 14.7201 105.94 14.9139C106.105 15.0981 106.231 15.3135 106.311 15.5474C106.391 15.8295 106.43 16.1215 106.428 16.4147V39.0059V38.9864Z" fill="white"/>
<path d="M129.417 30.0981C129.44 31.4799 129.235 32.856 128.812 34.1719C128.462 35.3433 127.854 36.4221 127.033 37.3296C126.205 38.2486 125.17 38.9598 124.014 39.4055C122.664 39.9134 121.227 40.155 119.784 40.1169C118.399 40.1378 117.02 39.9202 115.709 39.4737C114.611 39.0993 113.625 38.452 112.847 37.5927C112.056 36.7171 111.475 35.6742 111.147 34.5422C110.748 33.2117 110.556 31.8278 110.58 30.4392C110.556 29.0477 110.761 27.6617 111.186 26.3361C111.54 25.1602 112.158 24.0803 112.993 23.1784C113.816 22.2796 114.836 21.5826 115.973 21.1415C117.325 20.6353 118.761 20.3937 120.204 20.4301C121.589 20.4045 122.967 20.6189 124.278 21.0636C125.378 21.4415 126.366 22.0881 127.151 22.9445C127.932 23.8269 128.512 24.8676 128.851 25.995C129.249 27.3256 129.441 28.7095 129.417 30.0981ZM124.317 30.293C124.315 29.4968 124.253 28.702 124.132 27.915C124 27.2573 123.769 26.6232 123.448 26.034C123.125 25.5131 122.67 25.0862 122.129 24.7963C121.498 24.4722 120.795 24.3145 120.087 24.3382C119.412 24.3308 118.744 24.474 118.133 24.7573C117.582 25.0176 117.113 25.4217 116.774 25.9268C116.415 26.4953 116.148 27.117 115.983 27.7688C115.791 28.5829 115.702 29.4179 115.719 30.254C115.714 31.049 115.789 31.8424 115.944 32.6223C116.074 33.2804 116.305 33.9148 116.628 34.5033C116.94 35.0353 117.398 35.4679 117.947 35.7507C118.58 36.0659 119.282 36.2199 119.989 36.1991C120.663 36.2079 121.33 36.0681 121.943 35.7897C122.498 35.5364 122.969 35.1307 123.301 34.6202C123.654 34.0484 123.921 33.4277 124.093 32.7782C124.229 31.9565 124.304 31.1258 124.317 30.293Z" fill="white"/>
<path d="M150.101 39.0254C150.105 39.1495 150.063 39.2706 149.984 39.3665C149.868 39.469 149.74 39.5574 149.603 39.6297C149.359 39.7084 149.106 39.7574 148.851 39.7759C148.45 39.7979 148.049 39.7979 147.649 39.7759C147.245 39.7988 146.841 39.7988 146.437 39.7759C146.181 39.7615 145.928 39.7123 145.685 39.6297C145.535 39.5819 145.402 39.4902 145.304 39.3665C145.231 39.2674 145.19 39.1484 145.187 39.0254V29.0456C145.202 28.3747 145.139 27.7043 145.001 27.0476C144.903 26.6063 144.724 26.1867 144.474 25.8099C144.249 25.4688 143.934 25.1958 143.565 25.0205C143.156 24.8157 142.703 24.7121 142.246 24.7183C141.538 24.7296 140.852 24.9689 140.292 25.4006C139.552 25.9553 138.894 26.6115 138.338 27.3498V38.9865C138.34 39.1088 138.302 39.2285 138.23 39.3276C138.115 39.4499 137.97 39.5405 137.81 39.5907C137.566 39.6694 137.313 39.7185 137.058 39.7369C136.654 39.7598 136.25 39.7598 135.846 39.7369C135.446 39.7591 135.045 39.7591 134.644 39.7369C134.386 39.7173 134.13 39.6683 133.882 39.5907C133.725 39.539 133.584 39.4485 133.472 39.3276C133.399 39.2284 133.358 39.1094 133.355 38.9865V21.4437C133.351 21.3196 133.393 21.1985 133.472 21.1026C133.57 20.9965 133.686 20.9075 133.814 20.8395C134.018 20.7601 134.231 20.7077 134.449 20.6835C134.791 20.6608 135.133 20.6608 135.475 20.6835C135.826 20.662 136.179 20.662 136.53 20.6835C136.751 20.7042 136.969 20.7567 137.175 20.8395C137.308 20.8945 137.423 20.9856 137.507 21.1026C137.582 21.2008 137.623 21.3204 137.624 21.4437V23.4709C138.466 22.5276 139.456 21.7276 140.556 21.1026C141.521 20.588 142.598 20.317 143.692 20.3132C144.732 20.2734 145.767 20.4805 146.711 20.9174C147.494 21.2788 148.18 21.8198 148.714 22.4963C149.228 23.2082 149.599 24.0123 149.808 24.8645C150.047 25.9261 150.159 27.0123 150.14 28.1002V38.9475L150.101 39.0254Z" fill="white"/>
<path d="M171.118 29.7668C171.156 30.2417 171.009 30.7129 170.708 31.0825C170.567 31.2271 170.396 31.3388 170.207 31.4096C170.018 31.4804 169.815 31.5085 169.614 31.4918H158.935C158.916 32.1803 159.005 32.8676 159.198 33.5287C159.355 34.0981 159.639 34.6246 160.029 35.0686C160.437 35.5184 160.956 35.8543 161.534 36.0432C162.237 36.2863 162.978 36.4018 163.722 36.3843C164.482 36.3874 165.241 36.3222 165.989 36.1894C166.564 36.0894 167.132 35.9527 167.689 35.7801C168.177 35.6241 168.558 35.4779 168.891 35.361C169.134 35.2607 169.391 35.1983 169.653 35.1758C169.758 35.1797 169.862 35.2063 169.956 35.2538C170.004 35.2814 170.046 35.3193 170.078 35.3648C170.11 35.4102 170.132 35.4622 170.141 35.5169C170.141 35.6631 170.219 35.819 170.259 36.0042C170.275 36.2801 170.275 36.5567 170.259 36.8326C170.275 37.0825 170.275 37.3332 170.259 37.583C170.255 37.7611 170.229 37.938 170.18 38.1093C170.18 38.2653 170.102 38.3725 170.063 38.4894C170.014 38.5971 169.951 38.6986 169.878 38.7916C169.673 38.9544 169.442 39.0798 169.194 39.1619C168.716 39.3482 168.227 39.5012 167.728 39.62C167.122 39.7661 166.438 39.8831 165.686 39.9903C164.874 40.1042 164.054 40.1564 163.234 40.1462C161.838 40.1787 160.447 39.9744 159.12 39.542C158.016 39.1955 157.011 38.5906 156.189 37.778C155.373 36.9197 154.764 35.8862 154.411 34.7567C154.005 33.3643 153.814 31.9183 153.844 30.4685C153.818 29.0385 154.023 27.6137 154.45 26.2485C154.808 25.0827 155.411 24.0063 156.218 23.0908C156.994 22.2253 157.965 21.5571 159.052 21.1416C160.243 20.6752 161.514 20.4467 162.794 20.4691C164.08 20.4449 165.359 20.6597 166.565 21.1026C167.558 21.487 168.441 22.1096 169.135 22.9154C169.817 23.7004 170.317 24.6254 170.601 25.6248C170.927 26.7359 171.095 27.8876 171.099 29.0456V29.8058L171.118 29.7668ZM166.331 28.3341C166.441 27.1797 166.147 26.0229 165.5 25.0595C165.173 24.6516 164.751 24.3287 164.271 24.1183C163.792 23.9079 163.268 23.8162 162.745 23.851C162.212 23.8307 161.681 23.9357 161.196 24.1575C160.71 24.3792 160.284 24.7116 159.951 25.1277C159.646 25.555 159.406 26.0245 159.237 26.5214C159.069 27.0858 158.967 27.668 158.935 28.2562H166.331V28.3341Z" fill="white"/>
<path d="M185.012 39.6685L182.901 45.8767C182.784 46.2178 182.442 46.442 181.924 46.5882C181.173 46.77 180.401 46.8487 179.628 46.8221C179.21 46.823 178.792 46.7969 178.378 46.7441C178.126 46.7248 177.882 46.6481 177.664 46.52C177.531 46.4316 177.436 46.2956 177.401 46.1399C177.41 45.9474 177.446 45.7572 177.508 45.5746L179.853 39.727C179.662 39.6548 179.5 39.5211 179.394 39.3469C179.261 39.1934 179.161 39.0142 179.101 38.8206L173.053 22.7398C172.891 22.4006 172.798 22.033 172.779 21.658C172.777 21.5527 172.796 21.4481 172.837 21.3508C172.877 21.2535 172.937 21.1656 173.014 21.0927C173.245 20.923 173.519 20.8186 173.805 20.7906C174.292 20.7389 174.781 20.7129 175.271 20.7126C175.713 20.6888 176.157 20.6888 176.599 20.7126C176.855 20.7348 177.108 20.7871 177.352 20.8686C177.442 20.8978 177.526 20.946 177.597 21.0098C177.667 21.0736 177.724 21.1517 177.762 21.2389C177.872 21.4571 177.961 21.6856 178.026 21.9211L182.139 33.6163H182.217L185.999 21.6872C186.035 21.4383 186.136 21.2033 186.292 21.005C186.474 20.8784 186.68 20.789 186.897 20.7419C187.401 20.6908 187.906 20.6713 188.412 20.6834C188.879 20.6845 189.345 20.7106 189.809 20.7614C190.108 20.7839 190.396 20.8885 190.64 21.0635C190.725 21.1305 190.793 21.2166 190.839 21.3148C190.885 21.413 190.907 21.5205 190.903 21.6288C190.899 21.9244 190.846 22.2174 190.747 22.4961L185.012 39.6685Z" fill="white"/>
<path d="M205.999 34.0939C206.018 35.0031 205.823 35.9041 205.432 36.7253C205.06 37.4866 204.518 38.1532 203.849 38.6745C203.135 39.2198 202.312 39.6054 201.436 39.8051C200.449 40.0704 199.429 40.1983 198.407 40.1851C197.775 40.1926 197.144 40.1404 196.521 40.0292C195.986 39.9408 195.457 39.8171 194.939 39.6589C194.536 39.5382 194.144 39.385 193.766 39.2008C193.517 39.0924 193.288 38.9406 193.092 38.7525C192.917 38.5764 192.798 38.3526 192.75 38.1093C192.657 37.6772 192.618 37.2353 192.633 36.7936C192.61 36.4918 192.61 36.1889 192.633 35.8872C192.672 35.6663 192.711 35.4811 192.75 35.3317C192.758 35.2752 192.779 35.2213 192.812 35.1741C192.844 35.1268 192.886 35.0874 192.936 35.0588C193.032 35.019 193.134 34.996 193.239 34.9905C193.474 35.0156 193.698 35.1068 193.883 35.2537C194.147 35.3999 194.518 35.5948 194.939 35.78C195.42 35.9945 195.912 36.1832 196.414 36.3452C197.025 36.5314 197.661 36.6202 198.3 36.6084C198.706 36.619 199.111 36.5664 199.501 36.4524C199.822 36.3769 200.128 36.2519 200.41 36.0821C200.654 35.9227 200.85 35.7004 200.977 35.4389C201.102 35.1532 201.165 34.8443 201.162 34.5325C201.161 34.1735 201.029 33.8272 200.791 33.5579C200.513 33.2511 200.182 32.9968 199.814 32.8075C199.376 32.5755 198.922 32.3736 198.456 32.2032C197.967 32.018 197.479 31.8231 196.912 31.5989C196.346 31.3748 195.857 31.1116 195.359 30.8485C194.869 30.5485 194.413 30.1956 194.001 29.796C193.584 29.3572 193.252 28.845 193.024 28.2853C192.478 26.8591 192.52 25.2755 193.141 23.8801C193.471 23.178 193.959 22.5611 194.567 22.0771C195.247 21.5554 196.015 21.1593 196.834 20.9076C198.322 20.4963 199.878 20.3935 201.407 20.6055C201.875 20.6752 202.339 20.7761 202.794 20.9076C203.155 21.0156 203.511 21.1425 203.859 21.2877C204.064 21.3857 204.263 21.4964 204.455 21.6191C204.572 21.736 204.69 21.814 204.729 21.9212L204.836 22.2623C204.836 22.4182 204.836 22.5644 204.914 22.7886C204.936 23.0383 204.936 23.2894 204.914 23.539C204.937 23.8277 204.937 24.1177 204.914 24.4064C204.908 24.5876 204.869 24.7661 204.797 24.9327C204.772 25.0411 204.705 25.1355 204.611 25.1959C204.53 25.2394 204.44 25.2659 204.348 25.2738C204.15 25.2405 203.959 25.1781 203.781 25.0886C203.469 24.9112 203.142 24.7612 202.804 24.6403C202.433 24.4844 202.012 24.3382 201.524 24.1823C200.969 24.0399 200.396 23.9775 199.824 23.9971C199.428 23.9863 199.032 24.0356 198.651 24.1433C198.362 24.2084 198.091 24.3384 197.86 24.5234C197.657 24.6887 197.49 24.8945 197.371 25.1276C197.263 25.3625 197.213 25.6198 197.225 25.8781C197.219 26.057 197.248 26.2354 197.312 26.4027C197.376 26.5701 197.472 26.723 197.596 26.8527C197.876 27.1497 198.207 27.394 198.573 27.5739C199.024 27.8087 199.491 28.0107 199.97 28.1781C200.498 28.3633 201.026 28.5485 201.553 28.7726C202.094 28.9981 202.622 29.2519 203.136 29.5328C203.649 29.8166 204.119 30.1709 204.533 30.5854C204.952 31.019 205.283 31.5285 205.51 32.0862C205.817 32.7122 205.984 33.3973 205.999 34.0939Z" fill="white"/>
</svg>
