<svg width="32" height="32" viewBox="0 0 32 32" fill="none" xmlns="http://www.w3.org/2000/svg">
<path d="M18.9133 16.7733C18.4486 16.4629 17.9022 16.2972 17.3433 16.2972C16.7844 16.2972 16.2381 16.4629 15.7733 16.7733C15.578 16.9254 15.42 17.1201 15.3113 17.3425C15.2027 17.5649 15.1462 17.8092 15.1462 18.0567C15.1462 18.3042 15.2027 18.5485 15.3113 18.7709C15.42 18.9933 15.578 19.1879 15.7733 19.34C16.2261 19.6729 16.7785 19.8421 17.34 19.82C17.9033 19.84 18.4571 19.671 18.9133 19.34C19.1097 19.1894 19.2687 18.9956 19.3782 18.7736C19.4877 18.5517 19.5446 18.3075 19.5446 18.06C19.5446 17.8125 19.4877 17.5684 19.3782 17.3464C19.2687 17.1245 19.1097 16.9307 18.9133 16.78V16.7733Z" fill="#FFB606"/>
<path d="M15.96 14.2667C16.362 14.5461 16.8442 14.6865 17.3333 14.6667C17.8268 14.6735 18.3098 14.5242 18.7133 14.24C18.8881 14.1202 19.0303 13.9588 19.1269 13.7702C19.2235 13.5816 19.2716 13.3719 19.2667 13.16C19.2723 12.9457 19.2261 12.7333 19.1321 12.5406C19.0381 12.348 18.899 12.1808 18.7267 12.0533C18.3145 11.7837 17.8326 11.6401 17.34 11.6401C16.8474 11.6401 16.3655 11.7837 15.9533 12.0533C15.781 12.1808 15.6419 12.348 15.5479 12.5406C15.4539 12.7333 15.4077 12.9457 15.4133 13.16C15.405 13.3754 15.4507 13.5895 15.5461 13.7828C15.6416 13.976 15.7839 14.1424 15.96 14.2667Z" fill="#FFB606"/>
<path d="M16 0C12.8355 0 9.74206 0.938383 7.11087 2.69649C4.47969 4.45459 2.42893 6.95345 1.21793 9.87706C0.00692503 12.8007 -0.309918 16.0177 0.307445 19.1214C0.924809 22.2251 2.44863 25.0761 4.68627 27.3137C6.92391 29.5513 9.77484 31.0752 12.8785 31.6926C15.9822 32.3099 19.1993 31.9931 22.1229 30.7821C25.0465 29.5711 27.5454 27.5203 29.3035 24.8891C31.0616 22.2579 32 19.1645 32 16C32 11.7565 30.3143 7.68687 27.3137 4.68629C24.3131 1.68571 20.2435 0 16 0ZM10.9733 20.9467C10.9733 21.0492 10.9326 21.1476 10.8601 21.2201C10.7875 21.2926 10.6892 21.3333 10.5867 21.3333H9.10001C8.99746 21.3333 8.89909 21.2926 8.82657 21.2201C8.75406 21.1476 8.71333 21.0492 8.71333 20.9467V12.6667L6.3 14.52C6.23175 14.5738 6.14688 14.6021 6.06001 14.6C5.99957 14.6012 5.93978 14.5872 5.88618 14.5592C5.83259 14.5313 5.7869 14.4903 5.75333 14.44L5.08666 13.5467C5.03574 13.482 5.00761 13.4023 5.00667 13.32C5.00765 13.2566 5.02393 13.1945 5.05411 13.1387C5.08429 13.083 5.12747 13.0354 5.18001 13L8.76668 10.22C8.88674 10.1454 9.02534 10.1062 9.16666 10.1067H10.6066C10.7092 10.1067 10.8076 10.1474 10.8801 10.2199C10.9526 10.2924 10.9933 10.3908 10.9933 10.4933L10.9733 20.9467ZM21.2733 19.84C20.8878 20.3819 20.356 20.8028 19.74 21.0533C18.1961 21.6401 16.4906 21.6401 14.9467 21.0533C14.3299 20.8007 13.7996 20.3746 13.42 19.8267C13.0662 19.2988 12.8825 18.6753 12.8933 18.04C12.8827 17.4775 13.0356 16.924 13.3333 16.4467C13.62 15.986 14.0315 15.6161 14.52 15.38C14.1391 15.1476 13.8263 14.8187 13.6133 14.4267C13.3945 14.0168 13.2844 13.5578 13.2933 13.0933C13.28 12.6589 13.3691 12.2274 13.5532 11.8337C13.7373 11.4399 14.0114 11.095 14.3533 10.8267C15.2239 10.2204 16.2749 9.92884 17.3333 10C18.3923 9.9324 19.4422 10.2314 20.3067 10.8467C20.6489 11.1132 20.9233 11.4569 21.1075 11.8496C21.2917 12.2424 21.3805 12.6731 21.3667 13.1067C21.3745 13.5702 21.2668 14.0284 21.0533 14.44C20.839 14.8346 20.5267 15.1675 20.1466 15.4067C20.6434 15.6383 21.0625 16.0088 21.3533 16.4733C21.6522 16.9551 21.805 17.5132 21.7933 18.08C21.802 18.7058 21.6207 19.3194 21.2733 19.84V19.84ZM31.7133 17.1733C31.6786 17.2125 31.6352 17.2431 31.5866 17.2628C31.5381 17.2825 31.4856 17.2906 31.4333 17.2867H28.38V20.4067C28.3816 20.4571 28.373 20.5073 28.3547 20.5542C28.3363 20.6012 28.3086 20.644 28.2733 20.68C28.2376 20.718 28.1941 20.7479 28.1458 20.7674C28.0974 20.787 28.0454 20.7958 27.9933 20.7933H27.0333C26.9308 20.7933 26.8325 20.7525 26.76 20.68C26.7247 20.644 26.697 20.6012 26.6787 20.5542C26.6603 20.5073 26.6517 20.4571 26.6533 20.4067V17.3333H23.5933C23.5424 17.3349 23.4916 17.3256 23.4445 17.306C23.3974 17.2865 23.3549 17.2572 23.32 17.22C23.2849 17.1852 23.2573 17.1436 23.2389 17.0978C23.2206 17.0519 23.2119 17.0027 23.2133 16.9533V16.0867C23.2117 16.0363 23.2204 15.9861 23.2387 15.9391C23.257 15.8921 23.2847 15.8493 23.32 15.8133C23.3925 15.7408 23.4908 15.7 23.5933 15.7H26.6667V12.6667C26.6633 12.6151 26.6711 12.5634 26.6895 12.515C26.7079 12.4667 26.7365 12.4229 26.7733 12.3867C26.8095 12.3517 26.8524 12.3242 26.8993 12.3059C26.9462 12.2876 26.9963 12.2788 27.0467 12.28H28C28.0515 12.2771 28.1031 12.2851 28.1513 12.3035C28.1995 12.3219 28.2434 12.3503 28.2799 12.3868C28.3164 12.4233 28.3448 12.4671 28.3632 12.5153C28.3816 12.5636 28.3896 12.6151 28.3867 12.6667V15.6667H31.44C31.5425 15.6667 31.6409 15.7074 31.7134 15.7799C31.7859 15.8524 31.8267 15.9508 31.8267 16.0533V16.92C31.8273 16.9699 31.8175 17.0193 31.798 17.0652C31.7785 17.1111 31.7497 17.1525 31.7133 17.1867V17.1733Z" fill="#FFB606"/>
</svg>
