<svg width="23" height="19" viewBox="0 0 23 19" fill="none" xmlns="http://www.w3.org/2000/svg">
<path fill-rule="evenodd" clip-rule="evenodd" d="M0.824661 7.80911C0.824661 7.80911 5.95638 2.40552 6.52278 1.80911C7.08918 1.2127 7.87561 0.875 8.69812 0.875H19.9959C21.6528 0.875 22.9959 2.21815 22.9959 3.875V15.875C22.9959 17.5319 21.6528 18.875 19.9959 18.875H8.69812C7.87561 18.875 7.08918 18.5373 6.52278 17.9409L0.824661 11.9409C-0.274887 10.7831 -0.274887 8.96691 0.824661 7.80911ZM18.4561 12.7034L17.0341 14.1176L14.19 11.2893L11.346 14.1176L9.92392 12.7034L12.768 9.87505L9.92377 7.04654L11.3458 5.63232L14.19 8.46084L17.0342 5.63235L18.4563 7.04656L15.6121 9.87505L18.4561 12.7034Z" fill="#D5DBDF"/>
</svg>
